<svg width="311" height="155" viewBox="0 0 311 155" fill="none" xmlns="http://www.w3.org/2000/svg">
<path fill-rule="evenodd" clip-rule="evenodd" d="M310.05 10.0619C308.545 7.8122 305.5 7.20906 303.251 8.71473C225.692 60.6231 125.52 94.3549 31.1422 92.009C28.4359 91.9418 26.1876 94.0811 26.1203 96.7873C26.0531 99.4935 28.1923 101.742 30.8986 101.809C127.593 104.213 229.723 69.7216 308.703 16.8615C310.953 15.3559 311.556 12.3116 310.05 10.0619Z" fill="#5552FF"/>
<path fill-rule="evenodd" clip-rule="evenodd" d="M75.3018 48.472C73.0987 46.8989 70.0375 47.4097 68.4645 49.6128C49.7092 75.8798 26.6212 91.8964 6.27274 91.3906C3.56653 91.3233 1.31818 93.4626 1.25091 96.1688C1.18365 98.875 3.32294 101.123 6.02915 101.191C31.3457 101.82 57.0817 82.4245 76.4425 55.3093C78.0156 53.1062 77.5049 50.045 75.3018 48.472Z" fill="#5552FF"/>
<path fill-rule="evenodd" clip-rule="evenodd" d="M72.8413 147.486C70.5627 148.947 67.5307 148.285 66.0691 146.007C48.642 118.84 26.3782 101.696 6.0297 101.191C3.32349 101.123 1.1842 98.875 1.25147 96.1688C1.31873 93.4626 3.56708 91.3233 6.27329 91.3906C31.5899 92.0199 56.3305 112.67 74.3203 140.713C75.782 142.992 75.1198 146.024 72.8413 147.486Z" fill="#5552FF"/>
</svg>
