<svg width="312" height="155" viewBox="0 0 312 155" fill="none" xmlns="http://www.w3.org/2000/svg">
<path fill-rule="evenodd" clip-rule="evenodd" d="M0.948797 10.0615C2.45448 7.81181 5.49881 7.20867 7.74851 8.71434C85.3071 60.623 185.48 94.355 279.859 92.0092C282.565 91.9419 284.813 94.0812 284.88 96.7874C284.948 99.4937 282.808 101.742 280.102 101.809C183.407 104.213 81.2764 69.7216 2.29595 16.8612C0.0462534 15.3555 -0.556885 12.3112 0.948797 10.0615Z" fill="#5552FF"/>
<path fill-rule="evenodd" clip-rule="evenodd" d="M235.699 48.4719C237.902 46.8988 240.964 47.4096 242.537 49.6127C261.292 75.8798 284.38 91.8965 304.729 91.3908C307.435 91.3235 309.683 93.4628 309.751 96.169C309.818 98.8753 307.678 101.124 304.972 101.191C279.656 101.82 253.919 82.4246 234.558 55.3092C232.985 53.1061 233.496 50.0449 235.699 48.4719Z" fill="#5552FF"/>
<path fill-rule="evenodd" clip-rule="evenodd" d="M238.16 147.487C240.438 148.948 243.47 148.286 244.932 146.007C262.359 118.841 284.623 101.697 304.972 101.191C307.678 101.124 309.817 98.8756 309.75 96.1693C309.683 93.4631 307.434 91.3238 304.728 91.3911C279.411 92.0203 254.671 112.671 236.681 140.714C235.219 142.993 235.881 146.025 238.16 147.487Z" fill="#5552FF"/>
</svg>
