<svg width="100" height="100" viewBox="0 0 100 100" fill="none" xmlns="http://www.w3.org/2000/svg">
<rect width="100" height="100" rx="12.5" fill="white"/>
<path d="M77.2341 82.6095L69.656 75.1095C68.6143 75.8386 67.4549 76.3855 66.1778 76.7501C64.9008 77.1147 63.5862 77.297 62.2341 77.297C58.3278 77.297 55.007 75.9292 52.2716 73.1938C49.5362 70.4584 48.1695 67.1386 48.1716 63.2345C48.1716 59.3282 49.5393 56.0074 52.2747 53.272C55.0101 50.5365 58.3299 49.1699 62.2341 49.172C66.1403 49.172 69.4612 50.5397 72.1966 53.2751C74.932 56.0105 76.2987 59.3303 76.2966 63.2345C76.2966 64.5886 76.1143 65.9042 75.7497 67.1813C75.3851 68.4584 74.8383 69.6428 74.1091 70.7345L81.6091 78.2345C82.2341 78.8595 82.5601 79.5886 82.5872 80.422C82.6143 81.2553 82.3143 81.9845 81.6872 82.6095C81.0622 83.2345 80.3195 83.547 79.4591 83.547C78.5987 83.547 77.857 83.2345 77.2341 82.6095ZM62.2341 71.047C64.4216 71.047 66.2705 70.2917 67.781 68.7813C69.2914 67.2709 70.0466 65.422 70.0466 63.2345C70.0466 61.047 69.2914 59.198 67.781 57.6876C66.2705 56.1772 64.4216 55.422 62.2341 55.422C60.0466 55.422 58.1976 56.1772 56.6872 57.6876C55.1768 59.198 54.4216 61.047 54.4216 63.2345C54.4216 65.422 55.1768 67.2709 56.6872 68.7813C58.1976 70.2917 60.0466 71.047 62.2341 71.047ZM17.4685 67.8438C16.7914 67.3751 16.3872 66.7365 16.256 65.9282C16.1247 65.1199 16.2685 64.3522 16.6872 63.6251L28.4841 44.7188C29.057 43.8334 29.8518 43.3511 30.8685 43.272C31.8851 43.1928 32.757 43.5449 33.4841 44.3282L40.1247 52.0626L50.0466 35.8907C50.6195 34.9011 51.4924 34.4063 52.6653 34.4063C53.8383 34.4063 54.7362 34.8751 55.3591 35.8126L61.1403 44.4845C59.9424 44.5365 58.8101 44.6803 57.7435 44.9157C56.6768 45.1511 55.6216 45.4761 54.5778 45.8907L52.8591 43.3126L43.2497 58.9376C42.6768 59.823 41.8695 60.3178 40.8278 60.422C39.7862 60.5261 38.9008 60.1615 38.1716 59.3282L31.531 51.5938L21.9997 66.9845C21.531 67.7657 20.8403 68.248 19.9278 68.4313C19.0153 68.6147 18.1955 68.4188 17.4685 67.8438ZM69.1872 46.047C68.1976 45.6303 67.1685 45.2917 66.0997 45.0313C65.031 44.7709 63.9247 44.6147 62.781 44.5626L76.9997 22.0626C77.4685 21.3334 78.1456 20.8647 79.031 20.6563C79.9164 20.448 80.7237 20.6303 81.4528 21.2032C82.1299 21.672 82.5466 22.3095 82.7028 23.1157C82.8591 23.922 82.7289 24.6907 82.3122 25.422L69.1872 46.047Z" fill="#5552FF"/>
</svg>
