<svg width="100" height="100" viewBox="0 0 100 100" fill="none" xmlns="http://www.w3.org/2000/svg">
<rect width="100" height="100" rx="12.5" fill="white"/>
<path d="M44.8125 63.436C43.1875 63.2557 41.5891 62.886 40.05 62.3344C40.0969 61.2282 40.125 60.0751 40.125 58.8751V57.2954C41.5781 57.9891 43.1578 58.4719 44.8125 58.711V47.1563C44.8125 45.2915 45.5533 43.5031 46.8719 42.1845C48.1905 40.8658 49.9789 40.1251 51.8438 40.1251H63.3984C63.0246 37.5277 62.0332 35.0578 60.5074 32.9228C58.9816 30.7878 56.9659 29.05 54.6295 27.8552C52.2931 26.6604 49.7042 26.0434 47.0801 26.0561C44.4559 26.0688 41.8731 26.7108 39.5484 27.9282C39.1777 26.3951 38.567 24.9301 37.7391 23.5876C40.7778 22.0708 44.1379 21.3102 47.5336 21.3705C50.9294 21.4307 54.2603 22.31 57.2434 23.9336C60.2264 25.5572 62.7733 27.8771 64.6676 30.6961C66.5618 33.515 67.7473 36.7497 68.1234 40.1251H75.2812C77.1461 40.1251 78.9345 40.8658 80.2531 42.1845C81.5717 43.5031 82.3125 45.2915 82.3125 47.1563V70.5938C82.3125 72.4586 81.5717 74.247 80.2531 75.5657C78.9345 76.8843 77.1461 77.6251 75.2812 77.6251H51.8438C49.9789 77.6251 48.1905 76.8843 46.8719 75.5657C45.5533 74.247 44.8125 72.4586 44.8125 70.5938V63.436ZM68.1234 44.8126C67.5908 49.5685 65.4575 54.0022 62.0736 57.3861C58.6896 60.7701 54.2559 62.9034 49.5 63.436V70.5938C49.5 71.2154 49.7469 71.8116 50.1865 72.2511C50.626 72.6906 51.2221 72.9376 51.8438 72.9376H75.2812C75.9029 72.9376 76.499 72.6906 76.9385 72.2511C77.3781 71.8116 77.625 71.2154 77.625 70.5938V47.1563C77.625 46.5347 77.3781 45.9386 76.9385 45.499C76.499 45.0595 75.9029 44.8126 75.2812 44.8126H68.1234ZM63.3984 44.8126H51.8438C51.2221 44.8126 50.626 45.0595 50.1865 45.499C49.7469 45.9386 49.5 46.5347 49.5 47.1563V58.711C53.0061 58.2042 56.2543 56.5768 58.7593 54.0718C61.2642 51.5668 62.8917 48.3187 63.3984 44.8126ZM34.4766 47.4422C33.9844 45.6329 33.1875 43.8188 31.8188 42.4266C34.0312 40.3313 35.4375 36.9938 35.4375 33.0938C35.4375 29.8266 34.7766 27.5813 33.5813 25.786C33.0509 25.0138 32.4379 24.3018 31.7531 23.6626C31.4907 23.4092 31.225 23.1592 30.9563 22.9126C30.6703 22.6454 30.4078 22.4016 30.0656 22.0594C29.3625 21.3563 29.2828 20.7938 29.2828 20.4985C29.2836 20.3343 29.3105 20.1714 29.3625 20.0157C29.5768 19.5522 29.6339 19.0314 29.5251 18.5325C29.4163 18.0336 29.1475 17.5839 28.7597 17.2518C28.3718 16.9197 27.8861 16.7233 27.3764 16.6925C26.8667 16.6617 26.3609 16.7982 25.9359 17.0813L25.9266 17.086L25.9125 17.0954L25.8703 17.1235L25.7297 17.2172C25.0266 17.7188 24.3491 18.2554 23.7 18.8251C22.5281 19.861 21 21.3938 19.9172 23.2219C18.972 24.7375 18.2133 26.3618 17.6578 28.0594C17.0953 29.7422 16.6875 31.5657 16.6875 33.0938C16.6875 36.9938 18.0937 40.3266 20.3062 42.4313C18.9375 43.8188 18.1406 45.6329 17.6484 47.4469C16.6875 50.9719 16.6875 55.3313 16.6875 58.7016V58.8751C16.6875 68.5219 18.4922 74.2501 20.5359 77.6579C21.5625 79.3641 22.6313 80.4657 23.5266 81.1594C24.0036 81.5315 24.5228 81.8462 25.0734 82.0969C25.3919 82.2132 25.7246 82.2857 26.0625 82.3126C26.4563 82.3126 27.0516 82.0969 27.0516 82.0969C27.6022 81.8462 28.1214 81.5315 28.5984 81.1594C29.4891 80.4657 30.5672 79.3641 31.5891 77.6579C33.6328 74.2547 35.4375 68.5219 35.4375 58.8751V58.7063C35.4375 55.3313 35.4375 50.9766 34.4766 47.4422ZM23.6578 45.7079C24.1875 45.1735 24.8953 44.8126 26.0625 44.8126C27.2344 44.8126 27.9375 45.1782 28.4672 45.7032C29.0578 46.2985 29.5687 47.2641 29.9531 48.6751C30.7312 51.5391 30.75 55.2985 30.75 58.8751C30.75 67.9782 29.0391 72.7969 27.5672 75.2485C27.0047 76.186 26.475 76.7907 26.0625 77.1704C25.4731 76.6036 24.9666 75.9566 24.5578 75.2485C23.0859 72.7923 21.375 67.9782 21.375 58.8751C21.375 55.2985 21.3938 51.5391 22.1719 48.6751C22.5563 47.2688 23.0672 46.3032 23.6578 45.7079ZM26.0625 40.1251C24.2578 40.1251 21.375 38.1188 21.375 33.0938C21.375 32.2829 21.6187 30.9985 22.1062 29.5454C22.5505 28.1735 23.163 26.862 23.9297 25.6407C24.3375 24.9516 24.8672 24.2813 25.4391 23.6672C25.7625 24.2391 26.1891 24.8157 26.7516 25.3782C27.0938 25.7204 27.5391 26.1329 27.9187 26.4891L28.5 27.0329C28.9922 27.511 29.3719 27.9282 29.6766 28.3922C30.2391 29.2313 30.75 30.5016 30.75 33.0938C30.75 38.1188 27.8672 40.1251 26.0625 40.1251Z" fill="#5552FF"/>
</svg>
