<svg width="100" height="100" viewBox="0 0 100 100" fill="none" xmlns="http://www.w3.org/2000/svg">
<rect width="100" height="100" rx="12.5" fill="white"/>
<path d="M77.5 61.75C78.0523 61.75 78.5 61.3023 78.5 60.75V25.25C78.5 24.6977 78.0523 24.25 77.5 24.25H23.25C22.6977 24.25 22.25 24.6977 22.25 25.25V60.75C22.25 61.3023 22.6977 61.75 23.25 61.75H77.5ZM78.5 18C80.1576 18 81.7473 18.6585 82.9194 19.8306C84.0915 21.0027 84.75 22.5924 84.75 24.25V61.75C84.75 63.4076 84.0915 64.9973 82.9194 66.1694C81.7473 67.3415 80.1576 68 78.5 68H57.625C57.0727 68 56.625 68.4477 56.625 69V73.25C56.625 73.8023 57.0727 74.25 57.625 74.25H61.875C62.4273 74.25 62.875 74.6977 62.875 75.25V79.5C62.875 80.0523 62.4273 80.5 61.875 80.5H38.875C38.3227 80.5 37.875 80.0523 37.875 79.5V75.25C37.875 74.6977 38.3227 74.25 38.875 74.25H43.125C43.6773 74.25 44.125 73.8023 44.125 73.25V69C44.125 68.4477 43.6773 68 43.125 68H22.25C20.5924 68 19.0027 67.3415 17.8306 66.1694C16.6585 64.9973 16 63.4076 16 61.75V24.25C16 20.7812 18.7812 18 22.25 18H78.5ZM28.5 31.5C28.5 30.9477 28.9477 30.5 29.5 30.5H55.625C56.1773 30.5 56.625 30.9477 56.625 31.5V45.125C56.625 45.6773 56.1773 46.125 55.625 46.125H29.5C28.9477 46.125 28.5 45.6773 28.5 45.125V31.5ZM59.75 31.5C59.75 30.9477 60.1977 30.5 60.75 30.5H71.25C71.8023 30.5 72.25 30.9477 72.25 31.5V35.75C72.25 36.3023 71.8023 36.75 71.25 36.75H60.75C60.1977 36.75 59.75 36.3023 59.75 35.75V31.5ZM71.25 39.875C71.8023 39.875 72.25 40.3227 72.25 40.875V54.5C72.25 55.0523 71.8023 55.5 71.25 55.5H60.75C60.1977 55.5 59.75 55.0523 59.75 54.5V40.875C59.75 40.3227 60.1977 39.875 60.75 39.875H71.25ZM28.5 50.25C28.5 49.6977 28.9477 49.25 29.5 49.25H40C40.5523 49.25 41 49.6977 41 50.25V54.5C41 55.0523 40.5523 55.5 40 55.5H29.5C28.9477 55.5 28.5 55.0523 28.5 54.5V50.25ZM44.125 50.25C44.125 49.6977 44.5727 49.25 45.125 49.25H55.625C56.1773 49.25 56.625 49.6977 56.625 50.25V54.5C56.625 55.0523 56.1773 55.5 55.625 55.5H45.125C44.5727 55.5 44.125 55.0523 44.125 54.5V50.25Z" fill="#5552FF"/>
</svg>
