<svg width="56" height="59" viewBox="0 0 56 59" fill="none" xmlns="http://www.w3.org/2000/svg">
<path fill-rule="evenodd" clip-rule="evenodd" d="M32.9394 0.442947C35.0983 0.911572 36.4685 3.04157 35.9999 5.20043C34.2173 13.4123 25.309 29.6246 4 29.6246C1.79086 29.6246 0 27.8338 0 25.6246C0 23.4155 1.79086 21.6246 4 21.6246C20.2482 21.6246 26.886 9.47334 28.1819 3.50339C28.6506 1.34453 30.7806 -0.0256788 32.9394 0.442947Z" fill="#5552FF"/>
<path fill-rule="evenodd" clip-rule="evenodd" d="M31.475 58.213C29.2922 57.8728 27.7984 55.8275 28.1386 53.6447C28.7583 49.6683 30.5969 43.7838 34.2271 38.7852C37.9235 33.6954 43.7134 29.2607 52 29.2607C54.2091 29.2607 56 31.0515 56 33.2607C56 35.4698 54.2091 37.2607 52 37.2607C46.9775 37.2607 43.3584 39.8259 40.7002 43.4861C37.9758 47.2375 36.5144 51.853 36.0432 54.8766C35.703 57.0594 33.6578 58.5531 31.475 58.213Z" fill="#5552FF"/>
<path fill-rule="evenodd" clip-rule="evenodd" d="M31.6451 0.103891C29.4497 0.350102 27.8696 2.3294 28.1158 4.52477C28.698 9.71623 30.4466 17.5269 33.9186 24.1703C37.325 30.6883 43.0721 37.2608 52 37.2608C54.2091 37.2608 56 35.4699 56 33.2608C56 31.0517 54.2091 29.2608 52 29.2608C47.6188 29.2608 43.9568 26.106 41.0087 20.4649C38.1261 14.9492 36.5747 8.16898 36.066 3.63317C35.8198 1.43779 33.8405 -0.142319 31.6451 0.103891Z" fill="#5552FF"/>
<path fill-rule="evenodd" clip-rule="evenodd" d="M32.7277 58.2101C34.9087 57.8584 36.3916 55.8053 36.0399 53.6243C35.1904 48.3565 32.661 40.5519 27.708 33.9605C22.6808 27.2703 14.9615 21.6248 4 21.6248C1.79086 21.6248 -1.69954e-06 23.4156 -1.59179e-06 25.6248C-1.48405e-06 27.8339 1.79086 29.6248 4 29.6248C11.8171 29.6248 17.3737 33.5247 21.3124 38.7663C25.3254 44.1067 27.4521 50.6203 28.1419 54.8979C28.4936 57.0789 30.5467 58.5618 32.7277 58.2101Z" fill="#5552FF"/>
</svg>
