<svg width="418" height="306" viewBox="0 0 418 306" fill="none" xmlns="http://www.w3.org/2000/svg">
<path d="M352.068 21.1819C352.068 21.1819 367.408 11.7366 375.402 25.2924C381.069 34.9126 377.938 44.5329 382.398 52.439C389.395 64.6829 384.742 70.4726 374.247 72.659C363.752 74.8454 346.908 74.5481 349.235 62.3041C351.613 49.7803 339.929 21.007 352.068 21.1819Z" fill="#1A1A1A"/>
<path d="M368.825 48.5032C368.825 48.5032 370.102 66.4668 373.46 66.7817C370.992 67.9182 368.307 68.5066 365.589 68.5066C362.872 68.5066 360.186 67.9182 357.718 66.7817L357.176 58.5082L368.825 48.5032Z" fill="#EBB376"/>
<path d="M294.732 302.461H288.558L290.517 206.556H298.755L294.732 302.461Z" fill="#5552FF"/>
<path opacity="0.7" d="M294.732 302.461H288.558L290.517 206.556H298.755L294.732 302.461Z" fill="white"/>
<g opacity="0.4">
<path d="M345.387 302.461H339.213L341.172 206.556H349.41L345.387 302.461Z" fill="#5552FF"/>
</g>
<path d="M396.025 302.461H402.199L400.24 206.556H392.002L396.025 302.461Z" fill="#5552FF"/>
<g opacity="0.4">
<path d="M396.025 302.46H402.199L400.24 206.555H392.002L396.025 302.46Z" fill="white"/>
</g>
<path d="M396.444 206.555H295.099V215.528H396.444V206.555Z" fill="#5552FF"/>
<path opacity="0.5" d="M396.444 206.555H295.099V215.528H396.444V206.555Z" fill="white"/>
<path d="M345.368 302.461H351.542L349.583 206.555H341.345L345.368 302.461Z" fill="#5552FF"/>
<path opacity="0.7" d="M345.368 302.461H351.542L349.583 206.555H341.345L345.368 302.461Z" fill="white"/>
<path d="M402.6 92.9664H385.809C377.063 92.9664 367.635 97.5316 365.151 105.98C358.155 129.908 352.907 204.911 352.907 204.911H397.86C400.495 204.91 403.037 203.936 405 202.178C406.962 200.419 408.206 197.998 408.495 195.378L417.905 110.02C418.144 107.87 417.926 105.694 417.266 103.634C416.605 101.574 415.516 99.6765 414.071 98.0663C412.626 96.4562 410.858 95.1696 408.881 94.2907C406.904 93.4118 404.764 92.9605 402.6 92.9664Z" fill="#1A1A1A"/>
<path opacity="0.6" d="M402.6 92.9664H385.809C377.063 92.9664 367.635 97.5316 365.151 105.98C358.155 129.908 352.907 204.911 352.907 204.911H397.86C400.495 204.91 403.037 203.936 405 202.178C406.962 200.419 408.206 197.998 408.495 195.378L417.905 110.02C418.144 107.87 417.926 105.694 417.266 103.634C416.605 101.574 415.516 99.6765 414.071 98.0663C412.626 96.4562 410.858 95.1696 408.881 94.2907C406.904 93.4118 404.764 92.9605 402.6 92.9664Z" fill="white"/>
<path d="M392.351 92.9663H375.56C366.814 92.9663 357.404 97.5316 354.92 105.98C347.923 129.908 342.676 204.911 342.676 204.911H386.054C389.12 204.912 392.078 203.78 394.36 201.734C396.643 199.687 398.089 196.869 398.421 193.822L407.586 110.003C407.819 107.86 407.599 105.693 406.94 103.641C406.282 101.589 405.199 99.6987 403.762 98.0923C402.326 96.4859 400.567 95.1994 398.602 94.3163C396.636 93.4332 394.506 92.9733 392.351 92.9663Z" fill="#1A1A1A"/>
<path opacity="0.5" d="M392.351 92.9663H375.56C366.814 92.9663 357.404 97.5316 354.92 105.98C347.923 129.908 342.676 204.911 342.676 204.911H386.054C389.12 204.912 392.078 203.78 394.36 201.734C396.643 199.687 398.089 196.869 398.421 193.822L407.586 110.003C407.819 107.86 407.599 105.693 406.94 103.641C406.282 101.589 405.199 99.6987 403.762 98.0923C402.326 96.4859 400.567 95.1994 398.602 94.3163C396.636 93.4332 394.506 92.9733 392.351 92.9663Z" fill="white"/>
<path d="M358.382 206.556H292.684C289.775 206.556 286.986 205.4 284.929 203.343C282.872 201.287 281.717 198.497 281.717 195.588C281.717 192.68 282.872 189.89 284.929 187.834C286.986 185.777 289.775 184.621 292.684 184.621H358.382V206.556Z" fill="#1A1A1A"/>
<path opacity="0.5" d="M358.382 206.556H292.684C289.775 206.556 286.986 205.4 284.929 203.343C282.872 201.287 281.717 198.497 281.717 195.588C281.717 192.68 282.872 189.89 284.929 187.834C286.986 185.777 289.775 184.621 292.684 184.621H358.382V206.556Z" fill="white"/>
<path d="M398.526 206.556H356.109C353.326 206.556 350.656 205.45 348.688 203.482C346.72 201.514 345.614 198.844 345.614 196.061V195.116C345.614 192.333 346.72 189.664 348.688 187.695C350.656 185.727 353.326 184.622 356.109 184.622H398.526C401.434 184.622 404.224 185.777 406.281 187.834C408.337 189.89 409.493 192.68 409.493 195.589C409.493 198.497 408.337 201.287 406.281 203.344C404.224 205.4 401.434 206.556 398.526 206.556Z" fill="#1A1A1A"/>
<path opacity="0.6" d="M398.526 206.556H356.109C353.326 206.556 350.656 205.45 348.688 203.482C346.72 201.514 345.614 198.844 345.614 196.061V195.116C345.614 192.333 346.72 189.664 348.688 187.695C350.656 185.727 353.326 184.622 356.109 184.622H398.526C401.434 184.622 404.224 185.777 406.281 187.834C408.337 189.89 409.493 192.68 409.493 195.589C409.493 198.497 408.337 201.287 406.281 203.344C404.224 205.4 401.434 206.556 398.526 206.556Z" fill="white"/>
<path d="M336.938 90.7627C336.938 90.7627 338.407 106.732 330.868 113.501C324.011 119.658 312.939 122.684 312.939 122.684L303.179 119.833C302.732 119.7 302.255 119.7 301.808 119.833C301.36 119.967 300.961 120.228 300.66 120.585L296.305 125.833C295.907 126.362 295.735 127.028 295.827 127.683C295.919 128.339 296.267 128.932 296.795 129.331C297.057 129.537 297.357 129.69 297.678 129.78C298 129.87 298.335 129.896 298.666 129.856L303.721 129.244C305.753 129.643 307.811 129.895 309.878 129.996C311.441 129.678 312.979 129.245 314.479 128.702C314.479 128.702 331.883 127.197 339.299 119.781C346.715 112.365 348.587 96.9547 348.587 96.9547L336.938 90.7627Z" fill="#EBB376"/>
<path d="M285.672 260.796L286.809 295.709H294.627L298.283 260.167L285.672 260.796Z" fill="#EBB376"/>
<path d="M286.687 292.123H295.59C295.779 292.119 295.963 292.182 296.11 292.301C296.257 292.419 296.358 292.585 296.394 292.77L298.249 301.149C298.327 301.506 298.26 301.879 298.063 302.188C297.867 302.496 297.556 302.713 297.199 302.793H296.919C293.211 302.793 289.923 302.513 285.287 302.513C279.83 302.513 281.212 303.143 274.793 303.23C270.927 303.23 270.227 298.875 271.872 298.665C279.375 297.738 281.527 295.464 284.43 292.788C285.075 292.296 285.878 292.059 286.687 292.123Z" fill="#1A1A1A"/>
<path opacity="0.1" d="M295.413 288.048L296.287 279.495H286.282L286.562 288.048H295.413Z" fill="#1A1A1A"/>
<path d="M377.134 129.593C377.134 129.593 401.482 184.919 378.096 184.919H310.615C310.615 184.919 307.694 199.629 297.181 280.492H285.899C285.899 280.492 284.01 185.776 290.255 171.66C295.135 160.588 326.479 152.665 341.312 149.761C343.257 149.382 345.034 148.404 346.395 146.964C347.756 145.525 348.633 143.695 348.903 141.732L352.192 128.142L377.134 129.593Z" fill="#1A1A1A"/>
<path opacity="0.2" d="M377.134 129.593C377.134 129.593 401.482 184.919 378.096 184.919H310.615C310.615 184.919 307.694 199.629 297.181 280.492H285.899C285.899 280.492 284.01 185.776 290.255 171.66C295.135 160.588 326.479 152.665 341.312 149.761C343.257 149.382 345.034 148.404 346.395 146.964C347.756 145.525 348.633 143.695 348.903 141.732L352.192 128.142L377.134 129.593Z" fill="#1A1A1A"/>
<path d="M283.729 278.55L284.639 284.689H298.055L299.297 278.55H283.729Z" fill="#1A1A1A"/>
<path opacity="0.2" d="M283.729 278.55L284.639 284.689H298.055L299.297 278.55H283.729Z" fill="white"/>
<path d="M309.145 260.814L310.456 295.254L317.925 295.237L323.295 260.184L309.145 260.814Z" fill="#EBB376"/>
<path opacity="0.1" d="M319.027 288.048L320.339 279.495H309.844L310.176 288.048H319.027Z" fill="#1A1A1A"/>
<path d="M310.614 292.123H319.535C319.723 292.123 319.905 292.187 320.051 292.305C320.198 292.423 320.299 292.587 320.339 292.771L322.089 301.149C322.13 301.325 322.136 301.507 322.106 301.685C322.077 301.863 322.012 302.034 321.916 302.187C321.82 302.34 321.695 302.472 321.547 302.576C321.4 302.68 321.233 302.754 321.057 302.793H320.759C317.051 302.793 313.763 302.513 309.145 302.513C303.688 302.513 305.069 303.143 298.65 303.23C294.802 303.23 294.102 298.875 295.729 298.665C303.233 297.738 305.402 295.464 308.305 292.788C308.961 292.278 309.788 292.04 310.614 292.123Z" fill="#1A1A1A"/>
<path d="M389.447 130.555C389.447 130.555 391.196 130.555 393.82 143.622C397.161 160.221 402.006 184.919 386.071 184.919H334.419C334.419 184.919 331.9 190.918 320.916 280.492H309.634C309.634 280.492 303.372 184.639 309.634 170.523C314.444 159.644 338.337 154.659 351.491 152.944C353.331 152.761 355.046 151.928 356.328 150.594C357.61 149.261 358.376 147.514 358.487 145.668C358.592 141.715 358.015 129.926 358.015 129.926L389.447 130.555Z" fill="#1A1A1A"/>
<path d="M307.377 278.55L308.671 284.689H321.685L322.927 278.55H307.377Z" fill="#1A1A1A"/>
<path opacity="0.2" d="M307.377 278.55L308.671 284.689H321.685L322.927 278.55H307.377Z" fill="white"/>
<path d="M345.245 66.8697C338.949 65.9252 335.398 81.4225 335.065 96.0453L350.003 99.5436C350.003 99.5436 357.017 68.6538 345.245 66.8697Z" fill="#5552FF"/>
<path opacity="0.1" d="M345.245 66.8697C338.949 65.9252 335.398 81.4225 335.065 96.0453L350.003 99.5436C350.003 99.5436 357.017 68.6538 345.245 66.8697Z" fill="#1A1A1A"/>
<path d="M349.235 137.5C348.862 129.631 348.056 121.789 346.822 114.009C344.46 98.9661 340.402 82.052 341.784 71.3472C341.95 69.9671 342.628 68.6996 343.684 67.7958C344.74 66.892 346.097 66.4177 347.486 66.4671H388.346C388.975 66.4797 389.595 66.6202 390.167 66.88C390.74 67.1397 391.254 67.5133 391.678 67.978C392.102 68.4428 392.427 68.9889 392.633 69.5832C392.839 70.1774 392.922 70.8074 392.876 71.4347C391.477 82.9091 387.926 111.455 393.331 138.409C393.314 138.409 362.109 140.893 349.235 137.5Z" fill="#5552FF"/>
<path d="M384.673 86.9146C384.673 86.9146 387.384 105.49 379.198 110.72C371.012 115.95 353.101 121.373 353.101 121.373L342.029 119.029C341.75 118.967 341.46 118.992 341.197 119.102C340.934 119.212 340.711 119.4 340.559 119.641L336.116 126.812C335.954 127.083 335.881 127.398 335.909 127.713C335.938 128.027 336.065 128.324 336.274 128.562C336.435 128.753 336.64 128.903 336.871 128.997C337.103 129.092 337.354 129.128 337.603 129.104L344.302 128.422C345.832 128.793 347.387 129.05 348.955 129.191C350.906 128.897 352.831 128.446 354.71 127.844C354.71 127.844 380.3 125.343 388.118 117.542C395.937 109.741 396.864 93.5088 396.864 93.5088L384.673 86.9146Z" fill="#EBB376"/>
<path d="M389.778 66.817C381.837 65.8724 383.936 83.6087 382.974 96.0451L397.806 97.7942C397.806 97.7942 401.584 68.2163 389.778 66.817Z" fill="#5552FF"/>
<path opacity="0.1" d="M389.778 66.817C381.837 65.8724 383.936 83.6087 382.974 96.0451L397.806 97.7942C397.806 97.7942 401.584 68.2163 389.778 66.817Z" fill="#1A1A1A"/>
<path d="M356.478 67.6216C356.478 67.6216 354.939 80.8625 372.448 69.0559C372.985 68.6925 373.376 68.1507 373.552 67.5264C373.728 66.9021 373.678 66.2356 373.41 65.6451C372.62 64.005 372.185 62.217 372.133 60.3977C372.12 60.1326 372.038 59.8755 371.895 59.6525C371.751 59.4294 371.551 59.2483 371.315 59.1275C371.079 59.0068 370.815 58.9506 370.55 58.9648C370.285 58.979 370.028 59.0629 369.806 59.2082C366.315 61.5739 362.112 62.6556 357.912 62.2692C357.666 62.248 357.418 62.2871 357.19 62.3832C356.962 62.4792 356.761 62.6294 356.605 62.8206C356.448 63.0117 356.34 63.2383 356.291 63.4805C356.241 63.7227 356.251 63.9734 356.32 64.2108C356.66 65.3162 356.714 66.4895 356.478 67.6216Z" fill="#5552FF"/>
<path opacity="0.1" d="M356.478 67.6216C356.478 67.6216 354.939 80.8625 372.448 69.0559C372.985 68.6925 373.376 68.1507 373.552 67.5264C373.728 66.9021 373.678 66.2356 373.41 65.6451C372.62 64.005 372.185 62.217 372.133 60.3977C372.12 60.1326 372.038 59.8755 371.895 59.6525C371.751 59.4294 371.551 59.2483 371.315 59.1275C371.079 59.0068 370.815 58.9506 370.55 58.9648C370.285 58.979 370.028 59.0629 369.806 59.2082C366.315 61.5739 362.112 62.6556 357.912 62.2692C357.666 62.248 357.418 62.2871 357.19 62.3832C356.962 62.4792 356.761 62.6294 356.605 62.8206C356.448 63.0117 356.34 63.2383 356.291 63.4805C356.241 63.7227 356.251 63.9734 356.32 64.2108C356.66 65.3162 356.714 66.4895 356.478 67.6216Z" fill="#1A1A1A"/>
<path opacity="0.1" d="M369.106 51.0919C368.948 49.5352 368.878 48.5032 368.878 48.5032L357.299 58.5082L357.579 62.8811C360.867 62.6187 365.765 60.4673 369.106 51.0919Z" fill="#1A1A1A"/>
<path d="M369.769 34.0731C370.696 44.3055 371.308 48.6259 366.988 54.608C360.499 63.616 347.747 62.5316 343.759 52.8588C340.261 44.1131 339.247 28.8432 348.535 23.2809C350.577 22.0356 352.905 21.3348 355.296 21.2456C357.687 21.1563 360.061 21.6816 362.191 22.7711C364.321 23.8607 366.136 25.4782 367.463 27.4691C368.789 29.46 369.583 31.7578 369.769 34.1431V34.0731Z" fill="#EBB376"/>
<path d="M348.221 43.7458C347.82 45.7568 347.149 47.7043 346.227 49.5355C346.7 49.7561 347.217 49.8703 347.74 49.8703C348.262 49.8703 348.779 49.7561 349.253 49.5355L348.221 43.7458Z" fill="#D58745"/>
<path d="M354.586 37.309C354.65 37.2765 354.704 37.2283 354.744 37.1691C354.816 37.094 354.857 36.9937 354.857 36.8892C354.857 36.7848 354.816 36.6844 354.744 36.6094C354.149 36.13 353.447 35.8003 352.699 35.6482C351.95 35.496 351.175 35.5257 350.441 35.7348C350.34 35.7741 350.259 35.8505 350.213 35.9482C350.168 36.0458 350.161 36.1573 350.196 36.2595C350.231 36.3586 350.304 36.4397 350.399 36.4855C350.494 36.5313 350.603 36.5381 350.703 36.5044C351.306 36.3482 351.936 36.3365 352.544 36.4703C353.152 36.604 353.72 36.8794 354.201 37.274C354.259 37.3067 354.324 37.3266 354.39 37.3327C354.456 37.3387 354.523 37.3306 354.586 37.309Z" fill="#1A1A1A"/>
<path d="M340.384 39.4604C340.315 39.4756 340.243 39.4756 340.174 39.4604C340.089 39.3974 340.032 39.3047 340.012 39.201C339.993 39.0973 340.013 38.9901 340.069 38.9007C340.485 38.2607 341.048 37.7298 341.712 37.3524C342.375 36.975 343.119 36.7621 343.882 36.7317C343.977 36.7513 344.062 36.8029 344.122 36.8778C344.183 36.9527 344.217 37.0462 344.217 37.1428C344.217 37.2393 344.183 37.3329 344.122 37.4077C344.062 37.4826 343.977 37.5342 343.882 37.5538C343.258 37.582 342.649 37.7547 342.102 38.0582C341.556 38.3617 341.087 38.7877 340.734 39.3029C340.697 39.3604 340.644 39.4059 340.582 39.4339C340.52 39.4618 340.451 39.4711 340.384 39.4604Z" fill="#1A1A1A"/>
<path d="M353.783 41.3493C353.923 42.1714 353.608 42.906 353.065 43.011C352.523 43.1159 351.981 42.5212 351.841 41.6991C351.701 40.877 351.998 40.1424 352.541 40.0374C353.083 39.9325 353.625 40.5272 353.783 41.3493Z" fill="#1A1A1A"/>
<path d="M344.477 43.0288C344.634 43.8334 344.319 44.5856 343.777 44.673C343.235 44.7605 342.693 44.2008 342.535 43.3612C342.378 42.5216 342.71 41.8044 343.252 41.717C343.795 41.6295 344.337 42.1893 344.477 43.0288Z" fill="#1A1A1A"/>
<path d="M343.48 41.7865L341.416 41.5767C341.416 41.5767 342.71 42.8535 343.48 41.7865Z" fill="#1A1A1A"/>
<path d="M352.786 40.0375L350.704 39.8276C350.704 39.8276 351.998 41.192 352.786 40.0375Z" fill="#1A1A1A"/>
<path d="M373.389 41.7868C373.255 42.7626 372.93 43.7023 372.432 44.5518C371.933 45.4014 371.272 46.1439 370.485 46.7368C368.369 48.311 366.375 46.6493 366.182 44.1656C365.99 41.6818 366.882 38.411 369.383 37.8162C369.931 37.7009 370.498 37.7233 371.034 37.8814C371.57 38.0395 372.059 38.3283 372.456 38.7219C372.853 39.1156 373.147 39.6018 373.309 40.1367C373.472 40.6717 373.499 41.2386 373.389 41.7868Z" fill="#EBB376"/>
<path d="M352.086 53.7331C351.789 53.8241 351.485 53.8885 351.177 53.9256C351.154 53.9306 351.13 53.931 351.107 53.9267C351.084 53.9223 351.062 53.9134 351.042 53.9003C351.022 53.8872 351.006 53.8703 350.993 53.8506C350.98 53.8309 350.971 53.8088 350.967 53.7856C350.966 53.7355 350.983 53.6868 351.015 53.6483C351.048 53.6098 351.092 53.5841 351.142 53.5757C351.911 53.4746 352.646 53.194 353.287 52.7564C353.929 52.3189 354.458 51.7367 354.832 51.057C354.852 51.0112 354.888 50.9748 354.934 50.9553C354.979 50.9357 355.031 50.9345 355.077 50.952C355.106 50.9865 355.121 51.0298 355.121 51.0745C355.121 51.1191 355.106 51.1624 355.077 51.1969C354.446 52.3971 353.374 53.306 352.086 53.7331Z" fill="#1A1A1A"/>
<path d="M355.828 26.8842C355.828 26.8842 353.029 31.2571 355.181 34.3181C357.332 37.379 342.622 30.9772 338.844 37.6764C338.844 37.6764 334.034 16.9841 355.828 19.7477V26.8842Z" fill="#1A1A1A"/>
<path d="M355.11 25.5722C355.11 25.5722 353.483 33.8806 358.888 36.4344C364.293 38.9881 364.135 45.8447 368.98 44.6903C375.977 42.9412 370.974 21.7941 359.64 19.5027C351.297 17.7886 355.11 25.5722 355.11 25.5722Z" fill="#1A1A1A"/>
<path d="M202.344 303.912H196.309L193.668 144.286H204.985L202.344 303.912Z" fill="#5552FF"/>
<path opacity="0.7" d="M202.344 303.912H196.309L193.668 144.286H204.985L202.344 303.912Z" fill="white"/>
<path d="M268.914 303.912H262.879L260.238 144.286H271.555L268.914 303.912Z" fill="#5552FF"/>
<path opacity="0.4" d="M268.914 303.912H262.879L260.238 144.286H271.555L268.914 303.912Z" fill="white"/>
<path d="M313.131 141.61H199.314V154.099H313.131V141.61Z" fill="#5552FF"/>
<path opacity="0.3" d="M313.131 141.61H199.314V154.099H313.131V141.61Z" fill="white"/>
<path d="M379.879 141.61H313.132V154.099H379.879V141.61Z" fill="#5552FF"/>
<path opacity="0.5" d="M379.879 141.61H313.132V154.099H379.879V141.61Z" fill="white"/>
<path d="M382.731 303.912H376.697L374.056 144.286H385.373L382.731 303.912Z" fill="#5552FF"/>
<path opacity="0.4" d="M382.731 303.912H376.697L374.056 144.286H385.373L382.731 303.912Z" fill="white"/>
<path d="M387.645 133.582H301.36C298.8 133.582 296.725 135.657 296.725 138.217V139.651C296.725 142.211 298.8 144.286 301.36 144.286H387.645C390.205 144.286 392.28 142.211 392.28 139.651V138.217C392.28 135.657 390.205 133.582 387.645 133.582Z" fill="#1A1A1A"/>
<path opacity="0.6" d="M387.645 133.582H301.36C298.8 133.582 296.725 135.657 296.725 138.217V139.651C296.725 142.211 298.8 144.286 301.36 144.286H387.645C390.205 144.286 392.28 142.211 392.28 139.651V138.217C392.28 135.657 390.205 133.582 387.645 133.582Z" fill="white"/>
<path d="M306.976 133.582H188.926C186.366 133.582 184.291 135.657 184.291 138.217V139.651C184.291 142.211 186.366 144.286 188.926 144.286H306.976C309.535 144.286 311.611 142.211 311.611 139.651V138.217C311.611 135.657 309.535 133.582 306.976 133.582Z" fill="#1A1A1A"/>
<path opacity="0.5" d="M306.976 133.582H188.926C186.366 133.582 184.291 135.657 184.291 138.217V139.651C184.291 142.211 186.366 144.286 188.926 144.286H306.976C309.535 144.286 311.611 142.211 311.611 139.651V138.217C311.611 135.657 309.535 133.582 306.976 133.582Z" fill="white"/>
<path d="M316.158 303.912H310.124L307.482 144.286H318.799L316.158 303.912Z" fill="#5552FF"/>
<path opacity="0.7" d="M316.158 303.912H310.124L307.482 144.286H318.799L316.158 303.912Z" fill="white"/>
<path d="M303.615 133.581C303.151 133.581 302.707 133.397 302.379 133.069C302.05 132.741 301.866 132.296 301.866 131.832C301.866 131.368 302.05 130.923 302.379 130.595C302.707 130.267 303.151 130.083 303.615 130.083H352.066C352.53 130.083 352.975 130.267 353.303 130.595C353.631 130.923 353.816 131.368 353.816 131.832C353.816 132.296 353.631 132.741 353.303 133.069C352.975 133.397 352.53 133.581 352.066 133.581H303.615Z" fill="#5552FF"/>
<path opacity="0.2" d="M303.615 133.581C303.151 133.581 302.707 133.397 302.379 133.069C302.05 132.741 301.866 132.296 301.866 131.832C301.866 131.368 302.05 130.923 302.379 130.595C302.707 130.267 303.151 130.083 303.615 130.083H352.066C352.53 130.083 352.975 130.267 353.303 130.595C353.631 130.923 353.816 131.368 353.816 131.832C353.816 132.296 353.631 132.741 353.303 133.069C352.975 133.397 352.53 133.581 352.066 133.581H303.615Z" fill="#1A1A1A"/>
<path d="M307.729 130.503L301.292 84.6059C301.157 83.7677 300.734 83.0029 300.095 82.4439C299.456 81.8849 298.642 81.5669 297.794 81.5449H291.619V133.564H305.105C305.492 133.576 305.876 133.501 306.229 133.345C306.583 133.189 306.897 132.955 307.149 132.661C307.401 132.368 307.583 132.022 307.684 131.648C307.784 131.275 307.799 130.883 307.729 130.503Z" fill="#5552FF"/>
<path d="M302.446 133.564H247.663C246.816 133.539 246.003 133.22 245.365 132.661C244.727 132.103 244.303 131.34 244.165 130.503L237.728 84.6056C237.658 84.2255 237.673 83.8342 237.773 83.4608C237.873 83.0873 238.056 82.7411 238.308 82.4475C238.559 82.1539 238.874 81.9203 239.227 81.7641C239.581 81.6079 239.965 81.5329 240.352 81.5447H295.135C295.984 81.5666 296.798 81.8846 297.437 82.4436C298.076 83.0026 298.499 83.7674 298.633 84.6056L305.088 130.503C305.155 130.884 305.137 131.276 305.035 131.649C304.932 132.022 304.748 132.368 304.495 132.661C304.242 132.955 303.927 133.188 303.572 133.344C303.218 133.5 302.833 133.575 302.446 133.564Z" fill="#1A1A1A"/>
<path opacity="0.7" d="M302.446 133.564H247.663C246.816 133.539 246.003 133.22 245.365 132.661C244.727 132.103 244.303 131.34 244.165 130.503L237.728 84.6056C237.658 84.2255 237.673 83.8342 237.773 83.4608C237.873 83.0873 238.056 82.7411 238.308 82.4475C238.559 82.1539 238.874 81.9203 239.227 81.7641C239.581 81.6079 239.965 81.5329 240.352 81.5447H295.135C295.984 81.5666 296.798 81.8846 297.437 82.4436C298.076 83.0026 298.499 83.7674 298.633 84.6056L305.088 130.503C305.155 130.884 305.137 131.276 305.035 131.649C304.932 132.022 304.748 132.368 304.495 132.661C304.242 132.955 303.927 133.188 303.572 133.344C303.218 133.5 302.833 133.575 302.446 133.564Z" fill="white"/>
<path opacity="0.7" d="M274.074 106.295C274.136 106.642 274.12 106.999 274.028 107.339C273.935 107.68 273.769 107.995 273.539 108.263C273.31 108.531 273.024 108.744 272.702 108.888C272.38 109.032 272.03 109.102 271.677 109.094C270.901 109.075 270.156 108.785 269.571 108.273C268.986 107.762 268.599 107.062 268.476 106.295C268.413 105.948 268.429 105.59 268.523 105.249C268.616 104.908 268.785 104.593 269.017 104.326C269.248 104.059 269.537 103.848 269.861 103.707C270.185 103.567 270.537 103.501 270.89 103.514C271.661 103.536 272.4 103.826 272.981 104.333C273.562 104.841 273.948 105.534 274.074 106.295Z" fill="white"/>
<path d="M109.66 120.27C103.083 158.664 148.928 138.531 167.207 138.986C168.403 139.012 169.586 139.243 170.705 139.668L176.337 164.034L170.863 189.256L158.076 209.459H78.4206L20.8914 170.541L6.28613 124.871L10.3966 50.8996L12.1457 39.0229C12.1457 39.0229 13.8949 53.6457 54.125 49.99C94.3552 46.3343 125.84 33.3907 134.935 46.3343C146.007 61.8667 114.016 94.8729 109.66 120.27Z" fill="#5552FF"/>
<path opacity="0.2" d="M169.408 183.1V197.478L146.459 206.73L101.261 204.334L89.3672 189.257L94.4047 181.385H123.51L169.408 183.1Z" fill="#1A1A1A"/>
<path d="M96.2791 230.116H82.4609V293.015H96.2791V230.116Z" fill="#1A1A1A"/>
<path opacity="0.5" d="M96.2791 230.116H82.4609V293.015H96.2791V230.116Z" fill="white"/>
<path d="M99.8643 287.296H78.8921L36.0732 295.395V302.531H44.8889L78.8921 296.112H99.8643L133.868 302.531H142.683V295.395L99.8643 287.296Z" fill="#1A1A1A"/>
<path opacity="0.3" d="M99.8643 287.296H78.8921L36.0732 295.395V302.531H44.8889L78.8921 296.112H99.8643L133.868 302.531H142.683V295.395L99.8643 287.296Z" fill="white"/>
<path d="M133.868 305.644H142.614C143.185 305.644 143.732 305.418 144.135 305.014C144.539 304.611 144.765 304.064 144.765 303.493C144.765 302.922 144.539 302.375 144.135 301.972C143.732 301.568 143.185 301.342 142.614 301.342H133.868C133.298 301.342 132.75 301.568 132.347 301.972C131.943 302.375 131.717 302.922 131.717 303.493C131.717 304.064 131.943 304.611 132.347 305.014C132.75 305.418 133.298 305.644 133.868 305.644Z" fill="#5552FF"/>
<path d="M36.0733 305.644H44.819C45.3896 305.644 45.9368 305.418 46.3403 305.014C46.7438 304.611 46.9704 304.064 46.9704 303.493C46.9704 302.922 46.7438 302.375 46.3403 301.972C45.9368 301.568 45.3896 301.342 44.819 301.342H36.0733C35.5027 301.342 34.9555 301.568 34.552 301.972C34.1485 302.375 33.9219 302.922 33.9219 303.493C33.9219 304.064 34.1485 304.611 34.552 305.014C34.9555 305.418 35.5027 305.644 36.0733 305.644Z" fill="#5552FF"/>
<path opacity="0.2" d="M96.2791 230.116H82.4609V244.354H96.2791V230.116Z" fill="#1A1A1A"/>
<path d="M164.075 192.02H81.3936V174.197H164.075C166.438 174.197 168.705 175.134 170.377 176.803C172.049 178.472 172.991 180.737 172.996 183.1C172.996 185.466 172.056 187.734 170.383 189.407C168.71 191.08 166.441 192.02 164.075 192.02Z" fill="#5552FF"/>
<path opacity="0.1" d="M164.075 192.02H81.3936V174.197H164.075C166.438 174.197 168.705 175.134 170.377 176.803C172.049 178.472 172.991 180.737 172.996 183.1C172.996 185.466 172.056 187.734 170.383 189.407C168.71 191.08 166.441 192.02 164.075 192.02Z" fill="#1A1A1A"/>
<path d="M94.7912 63.1262C94.7912 63.1262 105.286 92.8615 114.032 93.4912C122.777 94.1209 133.272 78.2387 133.272 78.2387L137.593 67.0093L146.338 66.2746V80.3727L137.4 84.8505C137.4 84.8505 123.739 107.292 113.14 106.732C102.54 106.172 91.8352 89.7656 89.6662 81.4047C88.4593 76.7695 89.2464 67.2367 94.7912 63.1262Z" fill="#FFC3BD"/>
<path d="M148.175 87.5795L151.306 61.6572L139.307 60.8352L138.939 86.9498L148.175 87.5795Z" fill="#1A1A1A"/>
<path opacity="0.5" d="M148.175 87.5795L151.306 61.6572L139.307 60.8352L138.939 86.9498L148.175 87.5795Z" fill="white"/>
<path d="M151.514 57.9365L139.524 57.1296L139.273 60.8644L151.263 61.6712L151.514 57.9365Z" fill="#5552FF"/>
<path d="M139.593 56.3627L150.245 57.1084C150.426 57.121 150.594 57.205 150.713 57.3419C150.832 57.4788 150.892 57.6574 150.879 57.8383L150.747 59.7274L138.73 58.8862L138.861 57.0146C138.865 56.9234 138.888 56.8339 138.927 56.7515C138.966 56.669 139.021 56.5952 139.089 56.5344C139.158 56.4737 139.237 56.4272 139.324 56.3977C139.41 56.3682 139.501 56.3563 139.593 56.3627Z" fill="#1A1A1A"/>
<path d="M92.01 89.276C92.01 89.276 80.6581 70.5252 87.917 61.6396C95.176 52.754 106.248 82.0171 106.248 82.0171L92.01 89.276Z" fill="#5552FF"/>
<path opacity="0.3" d="M92.01 89.276C92.01 89.276 80.6581 70.5252 87.917 61.6396C95.176 52.754 106.248 82.0171 106.248 82.0171L92.01 89.276Z" fill="white"/>
<path d="M89.8057 87.9465L91.9571 91.1124L107.874 82.8915L106.387 79.5681L89.8057 87.9465Z" fill="#5552FF"/>
<path opacity="0.1" d="M89.8057 87.9465L91.9571 91.1124L107.874 82.8915L106.387 79.5681L89.8057 87.9465Z" fill="white"/>
<path d="M35.1278 160.938C35.1278 160.938 20.9073 111.158 37.5941 61.6395C37.5941 61.6395 59.2309 51.5645 90.0682 58.9634C90.9087 59.1615 91.701 59.5258 92.3985 60.0348C93.096 60.5439 93.6846 61.1874 94.1296 61.9274C94.5746 62.6674 94.867 63.489 94.9895 64.3437C95.1121 65.1985 95.0624 66.0691 94.8433 66.9044C91.7649 78.921 86.9897 107.554 98.5165 143.744C79.0666 154.464 57.3286 160.36 35.1278 160.938Z" fill="#5552FF"/>
<path opacity="0.5" d="M35.1278 160.938C35.1278 160.938 20.9073 111.158 37.5941 61.6395C37.5941 61.6395 59.2309 51.5645 90.0682 58.9634C90.9087 59.1615 91.701 59.5258 92.3985 60.0348C93.096 60.5439 93.6846 61.1874 94.1296 61.9274C94.5746 62.6674 94.867 63.489 94.9895 64.3437C95.1121 65.1985 95.0624 66.0691 94.8433 66.9044C91.7649 78.921 86.9897 107.554 98.5165 143.744C79.0666 154.464 57.3286 160.36 35.1278 160.938Z" fill="white"/>
<path d="M62.2061 56.4798L72.7009 65.5229L78.7529 60.153C76.4615 58.4039 77.0038 54.5908 78.3681 50.4278L63.5529 38.7261C64.27 44.2184 64.7598 51.7571 62.2061 56.4798Z" fill="#FFC3BD"/>
<path d="M138.276 173.34L157.534 181.176L155.365 189.327L134.795 185.094L138.276 173.34Z" fill="#FFC3BD"/>
<path d="M72.4891 145.528C72.4891 145.528 164.686 113.589 172.295 142.939C179.904 172.29 110.026 192.528 73.4161 191.303C36.8067 190.079 72.4891 145.528 72.4891 145.528Z" fill="#1A1A1A"/>
<path opacity="0.3" d="M72.4891 145.528C72.4891 145.528 164.686 113.589 172.295 142.939C179.904 172.29 110.026 192.528 73.4161 191.303C36.8067 190.079 72.4891 145.528 72.4891 145.528Z" fill="#1A1A1A"/>
<path opacity="0.7" d="M141.039 148.484L96.2431 177.03L103.38 188.749C103.38 188.749 99.0592 190.184 93.0771 175.858L120.766 157.562C120.766 157.562 112.02 156.688 112.318 155.341C112.685 153.119 131.716 148.869 140.391 147.05C140.571 147.011 140.759 147.035 140.924 147.118C141.088 147.201 141.219 147.338 141.295 147.505C141.371 147.673 141.386 147.862 141.34 148.04C141.293 148.218 141.187 148.375 141.039 148.484Z" fill="#1A1A1A"/>
<path opacity="0.7" d="M94.6681 175.771L102.417 188.924C92.881 190.668 83.1961 191.465 73.5035 191.303C70.3048 191.283 67.1356 190.691 64.1457 189.554L61.417 184.306L67.2941 171.94L94.6681 175.771Z" fill="#1A1A1A"/>
<path d="M95.4568 177.782L86.7461 185.094L90.7516 191.303L104.01 189.222L95.4568 177.782Z" fill="#FFC3BD"/>
<path d="M106.336 189.449L97.2404 175.106L93.1299 178.045L101.001 190.429L106.336 189.449Z" fill="#1A1A1A"/>
<path opacity="0.3" d="M106.336 189.449L97.2404 175.106L93.1299 178.045L101.001 190.429L106.336 189.449Z" fill="white"/>
<path d="M40.0799 176.086C35.1298 167.725 25.5621 142.362 48.5632 137.99C71.5644 133.617 147.162 176.103 147.162 176.103L143.664 187.158L72.0891 175.351C72.0891 175.351 91.9943 193.367 70.2175 191.093C52.9361 189.327 44.9075 184.254 40.0799 176.086Z" fill="#1A1A1A"/>
<path d="M145.306 173.34L140.828 187.787L145.306 188.4L149.329 175.928L145.306 173.34Z" fill="#1A1A1A"/>
<path opacity="0.3" d="M145.306 173.34L140.828 187.787L145.306 188.4L149.329 175.928L145.306 173.34Z" fill="white"/>
<path d="M93.3071 190.988L90.1761 181.42C90.1144 181.247 89.9965 181.1 89.8411 181.001C89.6858 180.903 89.502 180.86 89.319 180.878L80.9931 181.7C80.816 181.716 80.6436 181.766 80.486 181.848C80.3284 181.931 80.1887 182.043 80.0749 182.18C79.961 182.316 79.8754 182.474 79.8228 182.644C79.7703 182.814 79.7519 182.993 79.7687 183.17C79.7619 183.263 79.7619 183.356 79.7687 183.449C80.9582 186.86 82.1651 189.869 83.5644 194.154C85.3135 199.209 84.1941 198.125 86.0656 204.107C87.2026 207.71 91.488 207.028 91.1906 205.436C89.7738 198.195 91.6454 196.778 93.2371 193.28C93.5475 192.552 93.5725 191.734 93.3071 190.988Z" fill="#1A1A1A"/>
<path d="M155.819 180.651L152.583 190.464C152.527 190.645 152.533 190.839 152.599 191.016C152.666 191.193 152.789 191.344 152.95 191.443L160.349 195.851C160.505 195.946 160.678 196.01 160.858 196.037C161.039 196.065 161.223 196.057 161.401 196.013C161.578 195.969 161.745 195.89 161.891 195.782C162.038 195.673 162.162 195.536 162.255 195.379L162.378 195.117C163.48 191.618 164.319 188.347 165.789 183.94C167.538 178.692 167.678 180.266 169.794 174.197C171.054 170.524 167.083 168.477 166.296 169.964C163.042 176.821 160.646 176.838 157.165 178.71C156.495 179.171 156.016 179.862 155.819 180.651Z" fill="#1A1A1A"/>
<path d="M143.189 148.047H101.699C100.772 148.047 99.8818 147.679 99.2258 147.022C98.5697 146.366 98.2012 145.477 98.2012 144.549H146.775C146.775 145.016 146.682 145.478 146.5 145.908C146.319 146.338 146.054 146.728 145.719 147.054C145.385 147.38 144.989 147.636 144.555 147.806C144.12 147.977 143.656 148.059 143.189 148.047Z" fill="#1A1A1A"/>
<path opacity="0.2" d="M143.189 148.047H101.699C100.772 148.047 99.8818 147.679 99.2258 147.022C98.5697 146.366 98.2012 145.477 98.2012 144.549H146.775C146.775 145.016 146.682 145.478 146.5 145.908C146.319 146.338 146.054 146.728 145.719 147.054C145.385 147.38 144.989 147.636 144.555 147.806C144.12 147.977 143.656 148.059 143.189 148.047Z" fill="white"/>
<path d="M112.65 148.047H82.5119C81.5841 148.047 80.6943 147.679 80.0383 147.022C79.3822 146.366 79.0137 145.477 79.0137 144.549H116.235C116.235 145.016 116.142 145.478 115.961 145.908C115.78 146.338 115.514 146.728 115.18 147.054C114.846 147.38 114.45 147.636 114.015 147.806C113.581 147.977 113.116 148.059 112.65 148.047Z" fill="#1A1A1A"/>
<path opacity="0.5" d="M112.65 148.047H82.5119C81.5841 148.047 80.6943 147.679 80.0383 147.022C79.3822 146.366 79.0137 145.477 79.0137 144.549H116.235C116.235 145.016 116.142 145.478 115.961 145.908C115.78 146.338 115.514 146.728 115.18 147.054C114.846 147.38 114.45 147.636 114.015 147.806C113.581 147.977 113.116 148.059 112.65 148.047Z" fill="white"/>
<path d="M143.47 146.963H116.184C116.05 146.962 115.918 146.929 115.799 146.867C115.681 146.805 115.578 146.716 115.501 146.606C115.424 146.496 115.375 146.37 115.356 146.237C115.338 146.105 115.352 145.969 115.397 145.843L127.536 111.14C127.702 110.675 128.008 110.272 128.412 109.987C128.816 109.702 129.298 109.549 129.792 109.549H157.096C157.23 109.549 157.362 109.582 157.481 109.644C157.599 109.706 157.701 109.796 157.778 109.905C157.856 110.015 157.905 110.141 157.923 110.274C157.942 110.407 157.928 110.542 157.883 110.668L145.744 145.371C145.575 145.838 145.266 146.241 144.859 146.526C144.452 146.811 143.967 146.964 143.47 146.963Z" fill="#1A1A1A"/>
<path opacity="0.5" d="M143.47 146.963H116.184C116.05 146.962 115.918 146.929 115.799 146.867C115.681 146.805 115.578 146.716 115.501 146.606C115.424 146.496 115.375 146.37 115.356 146.237C115.338 146.105 115.352 145.969 115.397 145.843L127.536 111.14C127.702 110.675 128.008 110.272 128.412 109.987C128.816 109.702 129.298 109.549 129.792 109.549H157.096C157.23 109.549 157.362 109.582 157.481 109.644C157.599 109.706 157.701 109.796 157.778 109.905C157.856 110.015 157.905 110.141 157.923 110.274C157.942 110.407 157.928 110.542 157.883 110.668L145.744 145.371C145.575 145.838 145.266 146.241 144.859 146.526C144.452 146.811 143.967 146.964 143.47 146.963Z" fill="white"/>
<path d="M144.554 146.963H117.233C117.099 146.962 116.967 146.929 116.848 146.867C116.729 146.805 116.627 146.716 116.55 146.606C116.473 146.496 116.423 146.37 116.405 146.237C116.387 146.105 116.401 145.969 116.445 145.843L128.585 111.14C128.75 110.675 129.056 110.272 129.46 109.987C129.864 109.702 130.347 109.549 130.841 109.549H158.162C158.296 109.549 158.428 109.582 158.547 109.644C158.666 109.706 158.768 109.796 158.845 109.905C158.922 110.015 158.972 110.141 158.99 110.274C159.008 110.407 158.994 110.542 158.95 110.668L146.811 145.371C146.645 145.837 146.339 146.24 145.935 146.524C145.531 146.809 145.048 146.963 144.554 146.963Z" fill="#1A1A1A"/>
<path opacity="0.7" d="M144.554 146.963H117.233C117.099 146.962 116.967 146.929 116.848 146.867C116.729 146.805 116.627 146.716 116.55 146.606C116.473 146.496 116.423 146.37 116.405 146.237C116.387 146.105 116.401 145.969 116.445 145.843L128.585 111.14C128.75 110.675 129.056 110.272 129.46 109.987C129.864 109.702 130.347 109.549 130.841 109.549H158.162C158.296 109.549 158.428 109.582 158.547 109.644C158.666 109.706 158.768 109.796 158.845 109.905C158.922 110.015 158.972 110.141 158.99 110.274C159.008 110.407 158.994 110.542 158.95 110.668L146.811 145.371C146.645 145.837 146.339 146.24 145.935 146.524C145.531 146.809 145.048 146.963 144.554 146.963Z" fill="white"/>
<path d="M139.971 128.264C139.674 129.594 138.764 130.66 137.907 130.66C137.05 130.66 136.596 129.594 136.875 128.264C137.155 126.935 138.082 125.85 138.939 125.85C139.796 125.85 140.304 126.935 139.971 128.264Z" fill="white"/>
<path d="M48.7729 76.5771C48.7729 76.5771 55.4371 109.391 59.9324 114.831C64.4277 120.271 84.0005 134.911 84.0005 134.911L95.6498 132.48L103.993 139.476L98.5358 143.779L92.0815 141.348C88.5593 141.971 84.9888 142.281 81.4118 142.275C75.3947 142.275 50.9593 127.897 46.1142 119.816C41.2691 111.735 34.4824 81.3348 34.4824 81.3348L48.7729 76.5771Z" fill="#FFC3BD"/>
<path d="M58.3398 56.707L62.5028 54.2932L72.6478 65.5227C72.6478 65.5227 67.068 63.2488 65.4938 64.1758C63.9196 65.1029 65.074 68.6012 63.4298 68.6362C59.7741 68.6886 58.3398 56.707 58.3398 56.707Z" fill="#5552FF"/>
<path d="M72.6465 65.5229L77.8939 55.0281L82.2317 57.3544C82.2317 57.3544 86.2548 67.5169 83.1763 68.5839C81.3047 69.2311 80.5876 64.4909 78.7335 63.7912C77.2992 63.3015 72.6465 65.5229 72.6465 65.5229Z" fill="#5552FF"/>
<g opacity="0.2">
<path d="M58.3389 56.7073L62.5018 54.2935L72.6468 65.5229C72.6468 65.5229 67.0671 63.249 65.4928 64.1761C63.9186 65.1031 65.073 68.6014 63.4289 68.6364C59.7732 68.6889 58.3389 56.7073 58.3389 56.7073Z" fill="white"/>
<path d="M72.6455 65.5229L77.8929 55.0281L82.2308 57.3544C82.2308 57.3544 86.2538 67.5169 83.1753 68.5839C81.3037 69.2311 80.5866 64.4909 78.7325 63.7912C77.2982 63.3015 72.6455 65.5229 72.6455 65.5229Z" fill="white"/>
</g>
<path d="M35.1269 92.8963C35.1269 92.8963 27.4132 69.5454 37.5932 61.6393C47.7732 53.7332 52.5133 88.576 52.5133 88.576L35.1269 92.8963Z" fill="#5552FF"/>
<path opacity="0.3" d="M35.1269 92.8963C35.1269 92.8963 27.4132 69.5454 37.5932 61.6393C47.7732 53.7332 52.5133 88.576 52.5133 88.576L35.1269 92.8963Z" fill="white"/>
<path d="M33.0654 90.9026L34.6222 94.9081L54.0901 89.8881L53.303 85.8826L33.0654 90.9026Z" fill="#5552FF"/>
<path opacity="0.1" d="M33.0654 90.9026L34.6222 94.9081L54.0901 89.8881L53.303 85.8826L33.0654 90.9026Z" fill="white"/>
<path opacity="0.1" d="M63.7634 40.6676C63.7634 40.0029 63.606 39.3558 63.5186 38.7261L78.3338 50.4278C77.7975 52.0645 77.434 53.7529 77.2493 55.4653C68.2587 55.5353 64.9004 45.6351 63.7634 40.6676Z" fill="#1A1A1A"/>
<path d="M66.3154 21.6544C63.2194 32.1492 61.6802 36.5046 64.9511 43.5536C69.8487 54.2758 83.3695 55.7976 89.439 46.4572C94.9313 38.0438 99.1642 22.3715 90.576 14.6579C88.6995 12.9492 86.4169 11.7493 83.9454 11.1724C81.474 10.5955 78.8961 10.6609 76.457 11.3623C74.018 12.0636 71.7991 13.3777 70.0117 15.1792C68.2242 16.9808 66.9276 19.2099 66.2454 21.6544H66.3154Z" fill="#FFC3BD"/>
<path d="M78.0873 32.1494C77.7899 32.9715 77.9823 33.8111 78.542 34.0035C79.1018 34.1959 79.7665 33.6887 80.0638 32.8666C80.3612 32.0445 80.1688 31.1174 79.6265 30.995C79.0843 30.8726 78.4021 31.2924 78.0873 32.1494Z" fill="#1A1A1A"/>
<path d="M87.5005 35.5601C87.1856 36.3997 87.3955 37.3092 87.9203 37.4317C88.445 37.5541 89.1622 37.1168 89.4595 36.2772C89.7569 35.4377 89.5645 34.5281 89.0222 34.4057C88.48 34.2832 87.8153 34.7905 87.5005 35.5601Z" fill="#1A1A1A"/>
<path d="M84.3485 35.8049C84.8737 37.9035 85.6797 39.9216 86.7449 41.8045C86.2589 42.0717 85.7196 42.2275 85.1661 42.2608C84.6125 42.2941 84.0584 42.2039 83.5439 41.9969L84.3485 35.8049Z" fill="#ED893E"/>
<path d="M77.7202 27.514C77.7978 27.5944 77.899 27.648 78.0091 27.6668C78.1192 27.6857 78.2325 27.6689 78.3324 27.619C79.1443 27.3498 80.0031 27.2512 80.8549 27.3294C81.7067 27.4077 82.5332 27.6611 83.2825 28.0738C83.3419 28.1072 83.4075 28.1283 83.4752 28.1358C83.543 28.1434 83.6116 28.1371 83.6769 28.1175C83.7422 28.0979 83.8029 28.0654 83.8553 28.0218C83.9078 27.9782 83.9509 27.9245 83.9821 27.8639C84.0162 27.8055 84.0383 27.7409 84.0471 27.6739C84.0558 27.6068 84.0511 27.5387 84.0332 27.4736C84.0153 27.4084 83.9845 27.3474 83.9427 27.2943C83.9009 27.2412 83.8489 27.197 83.7897 27.1642C82.8937 26.6732 81.9051 26.3745 80.8872 26.2871C79.8692 26.1998 78.8442 26.3258 77.8776 26.657C77.7525 26.7174 77.6564 26.825 77.6105 26.9562C77.5646 27.0873 77.5726 27.2314 77.6327 27.3566C77.6469 27.4162 77.6771 27.4706 77.7202 27.514Z" fill="#1A1A1A"/>
<path d="M93.0436 33.7587C93.1244 33.8016 93.2145 33.824 93.306 33.824C93.3975 33.824 93.4876 33.8016 93.5684 33.7587C93.6893 33.6982 93.7832 33.5946 93.8318 33.4684C93.8803 33.3422 93.8799 33.2025 93.8307 33.0765C93.5188 32.3049 93.0277 31.6185 92.3982 31.0741C91.7686 30.5297 91.0186 30.1429 90.21 29.9456C90.083 29.9454 89.96 29.9898 89.8624 30.071C89.7648 30.1522 89.6988 30.2651 89.6759 30.39C89.653 30.5149 89.6746 30.6439 89.7371 30.7545C89.7995 30.865 89.8988 30.9502 90.0176 30.9951C90.6558 31.1533 91.2471 31.461 91.7428 31.8929C92.2386 32.3248 92.6245 32.8684 92.8687 33.4788C92.9045 33.5844 92.9644 33.6803 93.0436 33.7587Z" fill="#1A1A1A"/>
<path d="M64.2706 27.7938C64.8165 27.7759 65.3512 27.6347 65.8347 27.3808C66.3183 27.1269 66.7382 26.7669 67.0629 26.3278C67.3876 25.8887 67.6088 25.3818 67.7098 24.845C67.8109 24.3083 67.7892 23.7557 67.6465 23.2285C67.6465 23.2285 74.1357 23.0536 74.4156 18.296C74.4156 18.296 80.0828 23.316 82.0768 19.3979C82.0768 19.3979 89.0734 25.6074 89.948 21.4969C89.948 21.4969 97.1544 30.4525 96.7871 24.9952C96.7871 24.9952 104.921 24.1731 97.6092 17.1416C97.6092 17.1416 104.291 11.2994 93.4987 8.92061C93.4987 8.92061 94.4432 1.92406 86.852 5.03752C86.852 5.03752 85.1029 -2.50127 78.5261 1.88907C78.5261 1.88907 75.0278 -3.35835 71.0748 3.63821C71.0748 3.63821 65.3376 0.36732 63.5185 7.76617C63.5185 7.76617 53.1461 9.02554 57.414 15.8472C57.414 15.8472 60.6149 38.7434 63.5185 38.7434C65.495 38.7259 64.2706 27.7938 64.2706 27.7938Z" fill="#1A1A1A"/>
<path d="M60.7003 28.8258C60.7688 30.9319 61.6681 32.9253 63.2015 34.3706C65.2305 36.2772 67.5569 34.7554 68.0466 32.1667C68.5364 29.578 68.0466 26.0097 65.4054 25.1701C64.9605 25.0094 64.4875 24.9407 64.0152 24.968C63.5429 24.9953 63.081 25.1181 62.6575 25.3291C62.234 25.54 61.8577 25.8346 61.5514 26.1951C61.245 26.5557 61.015 26.9745 60.8752 27.4265C60.7225 27.8762 60.663 28.3524 60.7003 28.8258Z" fill="#FFC3BD"/>
<path d="M80.3955 44.813C80.7607 44.9239 81.1355 45 81.515 45.0403C81.5728 45.0507 81.6325 45.0383 81.6814 45.0057C81.7303 44.9731 81.7647 44.9228 81.7773 44.8654C81.7797 44.8356 81.7762 44.8055 81.7669 44.777C81.7576 44.7485 81.7428 44.7221 81.7233 44.6993C81.7038 44.6766 81.68 44.6579 81.6532 44.6444C81.6265 44.6309 81.5973 44.6227 81.5674 44.6205C80.6061 44.5182 79.6823 44.191 78.871 43.6652C78.0596 43.1395 77.3834 42.4302 76.8972 41.5946C76.8842 41.5663 76.8656 41.541 76.8424 41.5202C76.8192 41.4994 76.7921 41.4836 76.7625 41.4738C76.733 41.464 76.7018 41.4603 76.6708 41.463C76.6398 41.4657 76.6097 41.4747 76.5824 41.4896C76.5298 41.5159 76.4896 41.5617 76.47 41.6171C76.4504 41.6726 76.4531 41.7334 76.4774 41.7869C76.8946 42.528 77.4564 43.1777 78.1294 43.6975C78.8025 44.2174 79.5731 44.5967 80.3955 44.813Z" fill="#1A1A1A"/>
<path d="M5.28848 40.0381C5.28848 40.0381 -31.9507 231.411 91.2061 234.927C203.536 238.11 178.418 146.333 171.124 139.949C163.83 133.564 191.204 198.842 146.007 199.769C91.5035 200.871 81.6208 149.044 63.3599 148.625C45.0989 148.205 17.5324 172.36 14.7338 128.527C11.9352 84.6936 26.3656 10.3028 5.28848 40.0381Z" fill="#5552FF"/>
<path opacity="0.5" d="M5.28848 40.0381C5.28848 40.0381 -31.9507 231.411 91.2061 234.927C203.536 238.11 178.418 146.333 171.124 139.949C163.83 133.564 191.204 198.842 146.007 199.769C91.5035 200.871 81.6208 149.044 63.3599 148.625C45.0989 148.205 17.5324 172.36 14.7338 128.527C11.9352 84.6936 26.3656 10.3028 5.28848 40.0381Z" fill="white"/>
</svg>
