<svg width="583" height="99" viewBox="0 0 583 99" fill="none" xmlns="http://www.w3.org/2000/svg">
<path fill-rule="evenodd" clip-rule="evenodd" d="M469.713 14.8859C240.458 1.73084 64.7972 20.3827 5.90967 31.2793C3.19434 31.7817 0.585816 29.9878 0.0833705 27.2725C-0.419074 24.5572 1.37482 21.9486 4.09015 21.4462C63.8693 10.3846 240.342 -8.29226 470.286 4.90237C473.043 5.06056 475.15 7.4237 474.992 10.1806C474.833 12.9375 472.47 15.0441 469.713 14.8859Z" fill="#5552FF"/>
<path fill-rule="evenodd" clip-rule="evenodd" d="M469.657 15.575C302.562 24.1003 176.76 51.0269 135.017 63.324C132.368 64.1043 129.588 62.5896 128.808 59.9407C128.027 57.2918 129.542 54.5119 132.191 53.7315C174.787 41.1832 301.378 14.1477 469.148 5.58803C471.905 5.44733 474.255 7.56893 474.396 10.3268C474.537 13.0846 472.415 15.4343 469.657 15.575Z" fill="#5552FF"/>
<path fill-rule="evenodd" clip-rule="evenodd" d="M576.194 82.2383C359.946 52.6824 192.116 57.3145 135.524 63.2737C132.777 63.5628 130.317 61.571 130.028 58.8248C129.738 56.0785 131.73 53.6178 134.476 53.3286C191.972 47.2743 360.615 42.6809 577.548 72.3304C580.284 72.7044 582.199 75.2255 581.825 77.9615C581.451 80.6975 578.93 82.6123 576.194 82.2383Z" fill="#5552FF"/>
</svg>
