<svg width="420" height="180" viewBox="0 0 420 180" fill="none" xmlns="http://www.w3.org/2000/svg">
<path d="M0 179.363V63H60.0268C69.5492 63 77.384 64.9273 83.5313 68.782C89.7992 72.5162 94.4398 77.6357 97.4532 84.1404C100.467 90.6452 101.973 97.8727 101.973 105.823C101.973 114.014 100.226 121.302 96.73 127.686C93.2345 134.07 88.2925 139.069 81.9041 142.683C75.5157 146.297 67.9822 148.104 59.3036 148.104H33.9911V179.363H0ZM33.9911 122.085H51.5291C56.8326 122.085 60.7501 120.579 63.2813 117.568C65.9331 114.556 67.259 110.641 67.259 105.823C67.259 100.643 66.0536 96.5476 63.6429 93.5362C61.2322 90.5247 57.4956 89.019 52.4331 89.019H33.9911V122.085Z" fill="#5552FF"/>
<path d="M111.06 179.363V63H199.292V89.019H145.051V107.991H192.603V134.372H145.051V153.344H199.292V179.363H111.06Z" fill="#5552FF"/>
<path d="M210.114 179.363V63H298.346V89.019H244.105V107.991H291.656V134.372H244.105V153.344H298.346V179.363H210.114Z" fill="#5552FF"/>
<path d="M309.167 179.363V63H343.158V104.016L378.415 63H417.107L376.065 110.701L420 179.363H383.839L355.091 132.384L343.158 145.755V179.363H309.167Z" fill="#5552FF"/>
<path d="M124.147 47V10.2174H111V0H150.948V10.2174H137.802V47H124.147Z" fill="#5552FF"/>
<path d="M154.549 47V0H189.994V10.5093H168.204V18.1724H187.306V28.8276H168.204V36.4907H189.994V47H154.549Z" fill="#5552FF"/>
<path d="M192.888 47L210.828 0H225.282L243.223 47H228.987L225.065 37.0016H210.974L207.124 47H192.888ZM212.79 27.1491H223.249L218.019 13.3556L212.79 27.1491Z" fill="#5552FF"/>
<path d="M248.319 47V0H261.611L273.232 23.8649L284.781 0H298V47H284.345V23.5L276.864 38.972H269.528L261.974 23.5V47H248.319Z" fill="#5552FF"/>
</svg>
