<svg width="24" height="25" viewBox="0 0 24 25" fill="none" xmlns="http://www.w3.org/2000/svg">
<path d="M15 12.1064C15 12.6998 14.8241 13.2798 14.4944 13.7732C14.1648 14.2665 13.6962 14.651 13.1481 14.8781C12.5999 15.1051 11.9967 15.1646 11.4147 15.0488C10.8328 14.933 10.2982 14.6473 9.87868 14.2278C9.45912 13.8082 9.1734 13.2737 9.05764 12.6917C8.94189 12.1098 9.0013 11.5066 9.22836 10.9584C9.45542 10.4102 9.83994 9.94168 10.3333 9.61204C10.8266 9.28239 11.4067 9.10645 12 9.10645C12.7949 9.10892 13.5565 9.42578 14.1186 9.98786C14.6807 10.5499 14.9975 11.3116 15 12.1064ZM21.375 7.98145V16.2314C21.375 17.6238 20.8219 18.9592 19.8373 19.9438C18.8527 20.9283 17.5174 21.4814 16.125 21.4814H7.875C6.48261 21.4814 5.14726 20.9283 4.16269 19.9438C3.17812 18.9592 2.625 17.6238 2.625 16.2314V7.98145C2.625 6.58906 3.17812 5.2537 4.16269 4.26913C5.14726 3.28457 6.48261 2.73145 7.875 2.73145H16.125C17.5174 2.73145 18.8527 3.28457 19.8373 4.26913C20.8219 5.2537 21.375 6.58906 21.375 7.98145ZM16.5 12.1064C16.5 11.2164 16.2361 10.3464 15.7416 9.60638C15.2471 8.86636 14.5443 8.28958 13.7221 7.94899C12.8998 7.60839 11.995 7.51928 11.1221 7.69291C10.2492 7.86655 9.44736 8.29513 8.81802 8.92447C8.18868 9.5538 7.7601 10.3556 7.58647 11.2285C7.41283 12.1015 7.50195 13.0063 7.84254 13.8285C8.18314 14.6508 8.75991 15.3536 9.49993 15.8481C10.24 16.3425 11.11 16.6064 12 16.6064C13.1935 16.6064 14.3381 16.1323 15.182 15.2884C16.0259 14.4445 16.5 13.2999 16.5 12.1064ZM18 7.23145C18 7.00894 17.934 6.79143 17.8104 6.60643C17.6868 6.42142 17.5111 6.27723 17.3055 6.19208C17.1 6.10693 16.8738 6.08465 16.6555 6.12806C16.4373 6.17147 16.2368 6.27862 16.0795 6.43595C15.9222 6.59328 15.815 6.79374 15.7716 7.01197C15.7282 7.2302 15.7505 7.4564 15.8356 7.66196C15.9208 7.86753 16.065 8.04323 16.25 8.16685C16.435 8.29047 16.6525 8.35645 16.875 8.35645C17.1734 8.35645 17.4595 8.23792 17.6705 8.02694C17.8815 7.81596 18 7.52981 18 7.23145Z" fill="#5552FF"/>
</svg>
