<svg width="24" height="25" viewBox="0 0 24 25" fill="none" xmlns="http://www.w3.org/2000/svg">
<path d="M22.46 6.10645C21.69 6.45645 20.86 6.68645 20 6.79645C20.88 6.26645 21.56 5.42645 21.88 4.41645C21.05 4.91645 20.13 5.26645 19.16 5.46645C18.37 4.60645 17.26 4.10645 16 4.10645C13.65 4.10645 11.73 6.02645 11.73 8.39645C11.73 8.73645 11.77 9.06645 11.84 9.37645C8.28004 9.19645 5.11004 7.48645 3.00004 4.89645C2.63004 5.52645 2.42004 6.26645 2.42004 7.04645C2.42004 8.53645 3.17004 9.85645 4.33004 10.6064C3.62004 10.6064 2.96004 10.4064 2.38004 10.1064V10.1364C2.38004 12.2164 3.86004 13.9564 5.82004 14.3464C5.19077 14.5187 4.53013 14.5426 3.89004 14.4164C4.16165 15.2689 4.69358 16.0149 5.41106 16.5494C6.12854 17.0839 6.99549 17.3801 7.89004 17.3964C6.37367 18.5969 4.49404 19.2458 2.56004 19.2364C2.22004 19.2364 1.88004 19.2164 1.54004 19.1764C3.44004 20.3964 5.70004 21.1064 8.12004 21.1064C16 21.1064 20.33 14.5664 20.33 8.89645C20.33 8.70645 20.33 8.52644 20.32 8.33644C21.16 7.73644 21.88 6.97645 22.46 6.10645Z" fill="#5552FF"/>
</svg>
