<svg width="24" height="24" viewBox="0 0 24 24" fill="none" xmlns="http://www.w3.org/2000/svg">
<path d="M15.1248 21.0999L6.69982 12.6999C6.59982 12.5999 6.52882 12.4916 6.48682 12.3749C6.44482 12.2582 6.42415 12.1332 6.42482 11.9999C6.42482 11.8666 6.44549 11.7416 6.48682 11.6249C6.52815 11.5082 6.59915 11.3999 6.69982 11.2999L15.1248 2.8749C15.3582 2.64157 15.6498 2.5249 15.9998 2.5249C16.3498 2.5249 16.6498 2.6499 16.8998 2.8999C17.1498 3.1499 17.2748 3.44157 17.2748 3.7749C17.2748 4.10824 17.1498 4.3999 16.8998 4.6499L9.54982 11.9999L16.8998 19.3499C17.1332 19.5832 17.2498 19.8709 17.2498 20.2129C17.2498 20.5549 17.1248 20.8506 16.8748 21.0999C16.6248 21.3499 16.3332 21.4749 15.9998 21.4749C15.6665 21.4749 15.3748 21.3499 15.1248 21.0999Z" fill="white"/>
</svg>
