<svg width="24" height="24" viewBox="0 0 24 24" fill="none" xmlns="http://www.w3.org/2000/svg">
<path fill-rule="evenodd" clip-rule="evenodd" d="M24 6C24 6.55228 23.5523 7 23 7H1C0.447715 7 0 6.55228 0 6V6C0 5.44772 0.447716 5 1 5H23C23.5523 5 24 5.44772 24 6V6Z" fill="#5552FF"/>
<path fill-rule="evenodd" clip-rule="evenodd" d="M21 12C21 12.5523 20.5523 13 20 13H4C3.44772 13 3 12.5523 3 12V12C3 11.4477 3.44772 11 4 11H20C20.5523 11 21 11.4477 21 12V12Z" fill="#5552FF"/>
<path fill-rule="evenodd" clip-rule="evenodd" d="M16 18C16 18.5523 15.5523 19 15 19H9C8.44772 19 8 18.5523 8 18V18C8 17.4477 8.44772 17 9 17H15C15.5523 17 16 17.4477 16 18V18Z" fill="#5552FF"/>
</svg>
