<svg width="24" height="25" viewBox="0 0 24 25" fill="none" xmlns="http://www.w3.org/2000/svg">
<path d="M7.5 11.3628C8.03043 11.3628 8.53914 11.1521 8.91421 10.777C9.28929 10.4019 9.5 9.89323 9.5 9.36279C9.5 8.83236 9.28929 8.32365 8.91421 7.94858C8.53914 7.57351 8.03043 7.36279 7.5 7.36279H3V11.3628H7.5ZM8.5 13.3628H3V17.3628H8.5C9.03043 17.3628 9.53914 17.1521 9.91421 16.777C10.2893 16.4019 10.5 15.8932 10.5 15.3628C10.5 14.8324 10.2893 14.3237 9.91421 13.9486C9.53914 13.5735 9.03043 13.3628 8.5 13.3628ZM10.563 11.9348C11.3125 12.3855 11.8937 13.0694 12.2175 13.8819C12.5413 14.6943 12.5899 15.5905 12.3559 16.4332C12.1218 17.2759 11.618 18.0187 10.9216 18.5478C10.2252 19.0769 9.3746 19.3632 8.5 19.3628H1V5.36279H7.5C8.26148 5.36288 9.0071 5.58032 9.64926 5.98956C10.2914 6.3988 10.8034 6.98284 11.1251 7.67303C11.4468 8.36323 11.5648 9.1309 11.4652 9.88584C11.3656 10.6408 11.0526 11.3516 10.563 11.9348ZM15.5 6.36279H21V7.86279H15.5V6.36279ZM23 14.8628H15.5V15.1128C15.4998 15.7305 15.7075 16.3304 16.0898 16.8156C16.4721 17.3008 17.0066 17.6432 17.6073 17.7876C18.2079 17.932 18.8396 17.87 19.4007 17.6115C19.9617 17.353 20.4194 16.9131 20.7 16.3628H22.834C22.5293 17.4711 21.8333 18.4314 20.8748 19.0658C19.9164 19.7002 18.7605 19.9657 17.6212 19.8131C16.482 19.6605 15.4367 19.1002 14.6789 18.236C13.9212 17.3718 13.5023 16.2622 13.5 15.1128V13.6128C13.5 12.353 14.0004 11.1448 14.8912 10.254C15.782 9.36324 16.9902 8.86279 18.25 8.86279C19.5098 8.86279 20.718 9.36324 21.6088 10.254C22.4996 11.1448 23 12.353 23 13.6128V14.8628ZM20.896 12.8628C20.7323 12.2873 20.3854 11.7808 19.9079 11.4203C19.4304 11.0597 18.8483 10.8646 18.25 10.8646C17.6517 10.8646 17.0696 11.0597 16.5921 11.4203C16.1146 11.7808 15.7677 12.2873 15.604 12.8628H20.896Z" fill="#5552FF"/>
</svg>
