<svg width="24" height="25" viewBox="0 0 24 25" fill="none" xmlns="http://www.w3.org/2000/svg">
<path d="M12 2.36279C10.0222 2.36279 8.08879 2.94928 6.4443 4.0481C4.79981 5.14691 3.51809 6.7087 2.76121 8.53596C2.00433 10.3632 1.8063 12.3739 2.19215 14.3137C2.578 16.2535 3.53041 18.0353 4.92894 19.4339C6.32746 20.8324 8.10929 21.7848 10.0491 22.1706C11.9889 22.5565 13.9996 22.3585 15.8268 21.6016C17.6541 20.8447 19.2159 19.563 20.3147 17.9185C21.4135 16.274 22 14.3406 22 12.3628C22 11.0496 21.7413 9.74921 21.2388 8.53596C20.7363 7.3227 19.9997 6.22031 19.0711 5.29173C18.1425 4.36314 17.0401 3.62654 15.8268 3.124C14.6136 2.62145 13.3132 2.36279 12 2.36279ZM12 4.36279C14.0547 4.36197 16.0298 5.15772 17.51 6.58279C15.982 7.47899 14.3629 8.20979 12.68 8.76279C11.8425 7.31962 10.8823 5.95123 9.81 4.67279C10.522 4.46779 11.2591 4.36344 12 4.36279ZM7.89 5.51279C8.93769 6.7113 9.87797 7.99959 10.7 9.36279C8.73711 9.8502 6.72251 10.0987 4.7 10.1028H4.34C4.90721 8.18243 6.17394 6.5446 7.89 5.51279ZM6 17.6728C4.69876 16.2115 3.98608 14.3194 4 12.3628V12.0728H4.68C7.04738 12.0516 9.4014 11.7153 11.68 11.0728C12 11.6828 12.3 12.3128 12.59 12.9628C11.0315 13.5122 9.58001 14.3276 8.3 15.3728L8 15.6128C7.28712 16.253 6.61889 16.9413 6 17.6728ZM12 20.3628C10.4061 20.3663 8.8482 19.8889 7.53 18.9928C8.01685 18.4344 8.53784 17.9067 9.09 17.4128L9.41 17.1428C10.5932 16.1477 11.949 15.3783 13.41 14.8728C14.0113 16.4988 14.4795 18.171 14.81 19.8728C13.9098 20.2015 12.9583 20.3674 12 20.3628ZM16.63 18.8728C16.3028 17.3594 15.8752 15.8694 15.35 14.4128H15.69C15.7294 14.4031 15.7706 14.4031 15.81 14.4128H16.5C17.5524 14.4158 18.5968 14.5949 19.59 14.9428C19.0443 16.5332 18.0079 17.9092 16.63 18.8728ZM16.5 12.3628H15.88C15.7505 12.3465 15.6195 12.3465 15.49 12.3628C15.2182 12.3795 14.9477 12.4129 14.68 12.4628H14.58C14.29 11.7928 13.99 11.1428 13.66 10.4628C15.4506 9.84785 17.1704 9.04328 18.79 8.06279C19.5934 9.35216 20.0131 10.8436 20 12.3628V12.8728C18.8667 12.523 17.686 12.351 16.5 12.3628Z" fill="#5552FF"/>
</svg>
