<svg width="75" height="76" viewBox="0 0 75 76" fill="none" xmlns="http://www.w3.org/2000/svg">
<path d="M18.75 69.1128C17.0313 69.1128 15.5594 68.5003 14.3344 67.2753C13.1094 66.0503 12.4979 64.5795 12.5 62.8628V12.8628C12.5 11.144 13.1125 9.67217 14.3375 8.44717C15.5625 7.22217 17.0333 6.61071 18.75 6.6128H46.875L62.5 22.2378V62.8628C62.5 64.5816 61.8875 66.0534 60.6625 67.2784C59.4375 68.5034 57.9667 69.1149 56.25 69.1128H18.75ZM18.75 62.8628H56.25V25.3628H43.75V12.8628H18.75V62.8628ZM37.5 59.7378C40.9896 59.7378 43.9458 58.5138 46.3688 56.0659C48.7917 53.618 50.0021 50.6753 50 47.2378V34.7378H43.75V47.2378C43.75 48.9566 43.151 50.4284 41.9531 51.6534C40.7552 52.8784 39.2708 53.4899 37.5 53.4878C35.7813 53.4878 34.3094 52.8753 33.0844 51.6503C31.8594 50.4253 31.2479 48.9545 31.25 47.2378V30.0503C31.25 29.5815 31.4063 29.2034 31.7188 28.9159C32.0313 28.6284 32.3958 28.4857 32.8125 28.4878C33.2813 28.4878 33.6594 28.6315 33.9469 28.919C34.2344 29.2065 34.3771 29.5836 34.375 30.0503V47.2378H40.625V30.0503C40.625 27.8628 39.8698 26.0138 38.3594 24.5034C36.849 22.993 35 22.2378 32.8125 22.2378C30.625 22.2378 28.776 22.993 27.2656 24.5034C25.7552 26.0138 25 27.8628 25 30.0503V47.2378C25 50.6753 26.224 53.618 28.6719 56.0659C31.1198 58.5138 34.0625 59.7378 37.5 59.7378Z" fill="#5552FF"/>
</svg>
