<svg width="100" height="101" viewBox="0 0 100 101" fill="none" xmlns="http://www.w3.org/2000/svg">
<rect y="0.362793" width="100" height="100" rx="12.5" fill="white"/>
<path d="M45.75 50.5C45.75 49.5054 46.1451 48.5516 46.8484 47.8484C47.5516 47.1451 48.5054 46.75 49.5 46.75C50.4946 46.75 51.4484 47.1451 52.1516 47.8484C52.8549 48.5516 53.25 49.5054 53.25 50.5V65.5C53.25 66.4946 52.8549 67.4484 52.1516 68.1516C51.4484 68.8549 50.4946 69.25 49.5 69.25C48.5054 69.25 47.5516 68.8549 46.8484 68.1516C46.1451 67.4484 45.75 66.4946 45.75 65.5V50.5Z" fill="#5552FF"/>
<path d="M49.5 43C51.5711 43 53.25 41.3211 53.25 39.25C53.25 37.1789 51.5711 35.5 49.5 35.5C47.4289 35.5 45.75 37.1789 45.75 39.25C45.75 41.3211 47.4289 43 49.5 43Z" fill="#5552FF"/>
<path fill-rule="evenodd" clip-rule="evenodd" d="M19.5 50.5C19.5 58.4565 22.6607 66.0871 28.2868 71.7132C33.9129 77.3393 41.5435 80.5 49.5 80.5C57.4565 80.5 65.0871 77.3393 70.7132 71.7132C76.3393 66.0871 79.5 58.4565 79.5 50.5C79.5 42.5435 76.3393 34.9129 70.7132 29.2868C65.0871 23.6607 57.4565 20.5 49.5 20.5C41.5435 20.5 33.9129 23.6607 28.2868 29.2868C22.6607 34.9129 19.5 42.5435 19.5 50.5ZM72 50.5C72 56.4674 69.6295 62.1903 65.4099 66.4099C61.1903 70.6295 55.4674 73 49.5 73C43.5326 73 37.8097 70.6295 33.5901 66.4099C29.3705 62.1903 27 56.4674 27 50.5C27 44.5326 29.3705 38.8097 33.5901 34.5901C37.8097 30.3705 43.5326 28 49.5 28C55.4674 28 61.1903 30.3705 65.4099 34.5901C69.6295 38.8097 72 44.5326 72 50.5Z" fill="#5552FF"/>
</svg>
