<svg width="24" height="25" viewBox="0 0 24 25" fill="none" xmlns="http://www.w3.org/2000/svg">
<path d="M5.34783 8.05844C4.72514 8.05844 4.12796 7.81109 3.68766 7.37078C3.24736 6.93048 3 6.3333 3 5.71062C3 5.08794 3.24736 4.49076 3.68766 4.05045C4.12796 3.61015 4.72514 3.36279 5.34783 3.36279C5.97051 3.36279 6.56769 3.61015 7.00799 4.05045C7.44829 4.49076 7.69565 5.08794 7.69565 5.71062C7.69565 6.3333 7.44829 6.93048 7.00799 7.37078C6.56769 7.81109 5.97051 8.05844 5.34783 8.05844ZM3.78261 9.62366H6.91304V21.3628H3.78261V9.62366ZM12.3913 10.2967C13.3054 9.41236 14.3729 8.84105 15.5217 8.84105C18.7633 8.84105 21 11.4691 21 14.7106V21.3628H17.8696V14.7106C17.8696 13.9842 17.581 13.2874 17.0673 12.7738C16.5536 12.2601 15.8569 11.9715 15.1304 11.9715C14.404 11.9715 13.7073 12.2601 13.1936 12.7738C12.6799 13.2874 12.3913 13.9842 12.3913 14.7106V21.3628H9.26087V9.62366H12.3913V10.2967Z" fill="#5552FF"/>
</svg>
