<svg width="100" height="101" viewBox="0 0 100 101" fill="none" xmlns="http://www.w3.org/2000/svg">
<rect y="0.362793" width="100" height="100" rx="12.5" fill="white"/>
<path d="M50.5 19.25C46.3962 19.25 42.3326 20.0583 38.5411 21.6288C34.7497 23.1992 31.3047 25.5011 28.4029 28.4029C22.5424 34.2634 19.25 42.212 19.25 50.5C19.25 58.788 22.5424 66.7366 28.4029 72.5971C31.3047 75.4989 34.7497 77.8008 38.5411 79.3712C42.3326 80.9417 46.3962 81.75 50.5 81.75C58.788 81.75 66.7366 78.4576 72.5971 72.5971C78.4576 66.7366 81.75 58.788 81.75 50.5C81.75 46.875 81.0937 43.2812 79.8437 39.9062L74.8438 44.9063C75.2813 46.75 75.5 48.625 75.5 50.5C75.5 57.1304 72.8661 63.4893 68.1777 68.1777C63.4893 72.8661 57.1304 75.5 50.5 75.5C43.8696 75.5 37.5107 72.8661 32.8223 68.1777C28.1339 63.4893 25.5 57.1304 25.5 50.5C25.5 43.8696 28.1339 37.5107 32.8223 32.8223C37.5107 28.1339 43.8696 25.5 50.5 25.5C52.375 25.5 54.25 25.7188 56.0937 26.1563L61.125 21.125C57.7187 19.9062 54.125 19.25 50.5 19.25ZM72.375 19.25L59.875 31.75V36.4375L51.9062 44.4063C51.4375 44.25 50.9688 44.25 50.5 44.25C48.8424 44.25 47.2527 44.9085 46.0806 46.0806C44.9085 47.2527 44.25 48.8424 44.25 50.5C44.25 52.1576 44.9085 53.7473 46.0806 54.9194C47.2527 56.0915 48.8424 56.75 50.5 56.75C52.1576 56.75 53.7473 56.0915 54.9194 54.9194C56.0915 53.7473 56.75 52.1576 56.75 50.5C56.75 50.0312 56.75 49.5625 56.5937 49.0938L64.5625 41.125H69.25L81.75 28.625H72.375V19.25ZM50.5 31.75C45.5272 31.75 40.7581 33.7254 37.2417 37.2417C33.7254 40.7581 31.75 45.5272 31.75 50.5C31.75 55.4728 33.7254 60.2419 37.2417 63.7583C40.7581 67.2746 45.5272 69.25 50.5 69.25C55.4728 69.25 60.2419 67.2746 63.7583 63.7583C67.2746 60.2419 69.25 55.4728 69.25 50.5H63C63 53.8152 61.683 56.9946 59.3388 59.3388C56.9946 61.683 53.8152 63 50.5 63C47.1848 63 44.0054 61.683 41.6612 59.3388C39.317 56.9946 38 53.8152 38 50.5C38 47.1848 39.317 44.0054 41.6612 41.6612C44.0054 39.317 47.1848 38 50.5 38V31.75Z" fill="#5552FF"/>
</svg>
