<svg width="75" height="76" viewBox="0 0 75 76" fill="none" xmlns="http://www.w3.org/2000/svg">
<path d="M9.37501 65.9878C7.65626 65.9878 6.18438 65.3753 4.95938 64.1503C3.73438 62.9253 3.12292 61.4545 3.12501 59.7378V19.1128H9.37501V59.7378H62.5V65.9878H9.37501ZM21.875 53.4878C20.1563 53.4878 18.6844 52.8753 17.4594 51.6503C16.2344 50.4253 15.6229 48.9545 15.625 47.2378V12.8628C15.625 11.144 16.2375 9.67217 17.4625 8.44717C18.6875 7.22217 20.1583 6.61071 21.875 6.6128H37.5L43.75 12.8628H65.625C67.3438 12.8628 68.8156 13.4753 70.0406 14.7003C71.2656 15.9253 71.8771 17.3961 71.875 19.1128V47.2378C71.875 48.9566 71.2625 50.4284 70.0375 51.6534C68.8125 52.8784 67.3417 53.4899 65.625 53.4878H21.875ZM21.875 47.2378H65.625V19.1128H41.1719L34.9219 12.8628H21.875V47.2378Z" fill="#5552FF"/>
</svg>
