<svg width="421" height="116" viewBox="0 0 421 116" fill="none" xmlns="http://www.w3.org/2000/svg">
<path d="M0 116V0H60.1698C69.7148 0 77.5683 1.92133 83.7302 5.76398C90.013 9.48655 94.6647 14.5901 97.6853 21.0745C100.706 27.559 102.216 34.764 102.216 42.6894C102.216 50.8551 100.464 58.1201 96.9603 64.4845C93.4565 70.8489 88.5027 75.8323 82.0991 79.4348C75.6955 83.0373 68.1441 84.8385 59.4448 84.8385H34.072V116H0ZM34.072 58.9006H51.6518C56.968 58.9006 60.8947 57.3996 63.432 54.3975C66.0901 51.3954 67.4191 47.4928 67.4191 42.6894C67.4191 37.5259 66.2109 33.4431 63.7945 30.441C61.378 27.4389 57.6325 25.9379 52.5579 25.9379H34.072V58.9006Z" fill="#5552FF"/>
<path d="M111.325 116V0H199.767V25.9379H145.397V44.8509H193.061V71.1491H145.397V90.0621H199.767V116H111.325Z" fill="#5552FF"/>
<path d="M210.614 116V0H299.056V25.9379H244.686V44.8509H292.351V71.1491H244.686V90.0621H299.056V116H210.614Z" fill="#5552FF"/>
<path d="M309.903 116V0H343.975V40.8882L379.316 0H418.1L376.96 47.5528L421 116H384.753L355.937 69.1677L343.975 82.4969V116H309.903Z" fill="#5552FF"/>
</svg>
