<svg width="496" height="237" viewBox="0 0 496 237" fill="none" xmlns="http://www.w3.org/2000/svg">
<path fill-rule="evenodd" clip-rule="evenodd" d="M259.721 8.40215C150.87 9.5234 37.6087 12.7267 4.22942 14.6434C2.02392 14.77 0.133337 13.0848 0.00669487 10.8793C-0.119947 8.67375 1.56531 6.78317 3.77081 6.65653C37.3477 4.72852 150.765 1.52406 259.639 0.40258C314.086 -0.158266 367.448 -0.198783 409.161 0.703669C430.012 1.15478 447.998 1.84236 461.771 2.8229C468.654 3.31293 474.534 3.87943 479.216 4.53433C483.786 5.17345 487.566 5.94002 490.022 6.95092C491.36 7.50129 493.118 8.39289 494.172 9.98705C494.79 10.9207 495.18 12.1241 495.02 13.4689C494.869 14.7397 494.276 15.7196 493.712 16.3906C492.668 17.6342 491.149 18.5004 489.799 19.1356C488.337 19.8233 486.546 20.4755 484.515 21.1034C476.451 23.5959 462.957 26.1927 445.931 28.8494C411.754 34.1823 362.367 39.8982 311.206 45.4639C291.635 47.5929 271.806 49.6999 252.455 51.7561C221.164 55.0808 191.123 58.2728 165.447 61.2106C144.673 63.5875 126.813 65.7916 113.506 67.7578C109.09 68.4104 105.197 69.0336 101.878 69.6247C109.522 70.8757 120.179 72.2213 133.075 73.6227C163.338 76.9114 205.512 80.4638 248.893 83.8115C292.262 87.1584 336.916 90.3051 371.969 92.7754C406.881 95.2356 432.27 97.0248 437.382 97.6721C437.807 97.726 438.335 97.8138 438.857 97.9832L438.867 97.9864C439.181 98.0878 440.479 98.5076 441.328 99.8173C441.866 100.648 442.117 101.682 441.948 102.744C441.797 103.695 441.358 104.37 441.056 104.748C440.498 105.447 439.824 105.855 439.513 106.035C438.222 106.779 435.963 107.513 433.491 108.241C429.143 109.522 422.522 111.22 414.331 113.321C412.581 113.769 410.761 114.236 408.875 114.721C387.333 120.264 356.858 128.305 325.878 138.998C294.846 149.709 263.57 162.995 240.317 178.937C216.89 194.999 202.714 212.973 203.416 232.859C203.494 235.067 201.768 236.92 199.56 236.998C197.352 237.075 195.499 235.349 195.421 233.141C194.567 208.942 211.825 188.773 235.793 172.339C259.935 155.787 292.014 142.223 323.267 131.436C354.572 120.631 385.311 112.524 406.882 106.974C408.801 106.48 410.644 106.007 412.405 105.555C414.416 105.04 416.321 104.551 418.113 104.089C406.754 103.245 390.947 102.132 372.337 100.821C337.266 98.3513 292.241 95.1805 248.277 91.7878C204.887 88.4394 162.607 84.8791 132.21 81.5759C117.036 79.9268 104.717 78.3308 96.6841 76.8421C92.7552 76.1139 89.5256 75.3558 87.4901 74.5212C86.9583 74.3031 86.3786 74.0288 85.8416 73.6764C85.3754 73.3705 84.5425 72.7525 83.997 71.7007C83.297 70.351 83.3078 68.732 84.1154 67.366C84.7423 66.3056 85.6549 65.7312 86.1602 65.454C87.233 64.8653 88.6409 64.3881 90.1067 63.9745C91.642 63.5413 93.5141 63.1045 95.6698 62.6626C99.9848 61.7782 105.621 60.8361 112.337 59.8437C125.779 57.8576 143.746 55.6414 164.537 53.2625C190.239 50.3218 220.344 47.1229 251.665 43.7948C271.011 41.7393 290.819 39.6345 310.341 37.5109C361.521 31.9431 410.73 26.2451 444.697 20.9451C461.743 18.2853 474.708 15.761 482.152 13.4601C482.391 13.3863 482.623 13.3131 482.847 13.2408C481.533 12.9794 479.958 12.7158 478.108 12.4572C473.677 11.8375 467.996 11.2863 461.203 10.8027C447.622 9.83587 429.787 9.15178 408.988 8.7018C367.4 7.80206 314.137 7.84164 259.721 8.40215Z" fill="#5552FF"/>
</svg>
